<mxfile host="app.diagrams.net" modified="2021-06-14T14:26:23.104Z" agent="5.0 (Windows NT 10.0; Win64; x64) AppleWebKit/537.36 (KHTML, like Gecko) Chrome/91.0.4472.101 Safari/537.36 Edg/91.0.864.48" etag="VwKAixLMMUO4a0GqMN0i" version="14.7.7" type="github">
  <diagram id="CUg5kIm4h3RE6FH3jLXT" name="ML Business Architecture">
    <mxGraphModel dx="1122" dy="794" grid="1" gridSize="10" guides="1" tooltips="1" connect="1" arrows="1" fold="1" page="1" pageScale="1" pageWidth="1100" pageHeight="850" math="0" shadow="0">
      <root>
        <mxCell id="0" />
        <mxCell id="1" parent="0" />
        <mxCell id="GfWKtc_v5-ul72PLcQqI-2" value="" style="aspect=fixed;html=1;points=[];align=center;image;fontSize=12;image=img/lib/mscae/SAP_HANA_on_Azure.svg;" parent="1" vertex="1">
          <mxGeometry x="129" y="314" width="50" height="25" as="geometry" />
        </mxCell>
        <mxCell id="GfWKtc_v5-ul72PLcQqI-3" value="" style="shape=image;html=1;verticalAlign=top;verticalLabelPosition=bottom;labelBackgroundColor=#ffffff;imageAspect=0;aspect=fixed;image=https://cdn1.iconfinder.com/data/icons/microsoft-product-2/512/42_Microsoft_Crm-128.png" parent="1" vertex="1">
          <mxGeometry x="129" y="370" width="40" height="40" as="geometry" />
        </mxCell>
        <mxCell id="GfWKtc_v5-ul72PLcQqI-4" value="" style="dashed=0;outlineConnect=0;html=1;align=center;labelPosition=center;verticalLabelPosition=bottom;verticalAlign=top;shape=mxgraph.weblogos.oracle;fillColor=#FF0000;strokeColor=none" parent="1" vertex="1">
          <mxGeometry x="120" y="430" width="60" height="20" as="geometry" />
        </mxCell>
        <mxCell id="GfWKtc_v5-ul72PLcQqI-5" value="" style="shape=image;html=1;verticalAlign=top;verticalLabelPosition=bottom;labelBackgroundColor=#ffffff;imageAspect=0;aspect=fixed;image=https://cdn2.iconfinder.com/data/icons/china-and-us-trade-war-4/512/SupplyChain-distribution-factory-manufacturer-production-128.png" parent="1" vertex="1">
          <mxGeometry x="129" y="480" width="40" height="40" as="geometry" />
        </mxCell>
        <mxCell id="GfWKtc_v5-ul72PLcQqI-7" value="" style="shape=image;html=1;verticalAlign=top;verticalLabelPosition=bottom;labelBackgroundColor=#ffffff;imageAspect=0;aspect=fixed;image=https://cdn3.iconfinder.com/data/icons/seo-black-fill-easy-1/128/Ribbon_Badge_Quality_Guarantee_Warranty-128.png" parent="1" vertex="1">
          <mxGeometry x="134" y="550" width="30" height="30" as="geometry" />
        </mxCell>
        <mxCell id="GfWKtc_v5-ul72PLcQqI-9" value="" style="dashed=0;outlineConnect=0;html=1;align=center;labelPosition=center;verticalLabelPosition=bottom;verticalAlign=top;shape=mxgraph.webicons.twitter;fillColor=#49EAF7;gradientColor=#137BD0" parent="1" vertex="1">
          <mxGeometry x="129" y="240" width="40" height="40" as="geometry" />
        </mxCell>
        <mxCell id="Wt8TvYqCvoo39W7ugdJr-3" style="edgeStyle=none;rounded=0;orthogonalLoop=1;jettySize=auto;html=1;entryX=-0.067;entryY=0.463;entryDx=0;entryDy=0;entryPerimeter=0;exitX=0.5;exitY=0;exitDx=0;exitDy=0;" edge="1" parent="1" source="GfWKtc_v5-ul72PLcQqI-10" target="Wt8TvYqCvoo39W7ugdJr-1">
          <mxGeometry relative="1" as="geometry">
            <Array as="points">
              <mxPoint x="200" y="129" />
            </Array>
          </mxGeometry>
        </mxCell>
        <mxCell id="GfWKtc_v5-ul72PLcQqI-10" value="" style="shape=image;html=1;verticalAlign=top;verticalLabelPosition=bottom;labelBackgroundColor=#ffffff;imageAspect=0;aspect=fixed;image=https://cdn2.iconfinder.com/data/icons/social-media-2102/100/social_media_network-12-128.png" parent="1" vertex="1">
          <mxGeometry x="129" y="170" width="40" height="40" as="geometry" />
        </mxCell>
        <mxCell id="GfWKtc_v5-ul72PLcQqI-11" value="" style="shape=image;html=1;verticalAlign=top;verticalLabelPosition=bottom;labelBackgroundColor=#ffffff;imageAspect=0;aspect=fixed;image=https://cdn3.iconfinder.com/data/icons/customer-support-24/64/customer-feedback-review-satisfaction-contentment-128.png" parent="1" vertex="1">
          <mxGeometry x="132" y="610" width="30" height="30" as="geometry" />
        </mxCell>
        <mxCell id="GfWKtc_v5-ul72PLcQqI-29" style="edgeStyle=orthogonalEdgeStyle;rounded=0;orthogonalLoop=1;jettySize=auto;html=1;entryX=0;entryY=0.5;entryDx=0;entryDy=0;fontSize=19;endArrow=classic;endFill=1;startArrow=classic;startFill=1;" parent="1" source="GfWKtc_v5-ul72PLcQqI-12" target="GfWKtc_v5-ul72PLcQqI-18" edge="1">
          <mxGeometry relative="1" as="geometry" />
        </mxCell>
        <mxCell id="GfWKtc_v5-ul72PLcQqI-30" style="edgeStyle=orthogonalEdgeStyle;rounded=0;orthogonalLoop=1;jettySize=auto;html=1;entryX=0;entryY=0.5;entryDx=0;entryDy=0;startArrow=classic;startFill=1;endArrow=classic;endFill=1;fontSize=19;" parent="1" source="GfWKtc_v5-ul72PLcQqI-12" target="GfWKtc_v5-ul72PLcQqI-25" edge="1">
          <mxGeometry relative="1" as="geometry">
            <Array as="points">
              <mxPoint x="504" y="380" />
              <mxPoint x="504" y="295" />
            </Array>
          </mxGeometry>
        </mxCell>
        <mxCell id="GfWKtc_v5-ul72PLcQqI-31" style="edgeStyle=orthogonalEdgeStyle;rounded=0;orthogonalLoop=1;jettySize=auto;html=1;entryX=0.017;entryY=0.54;entryDx=0;entryDy=0;entryPerimeter=0;startArrow=classic;startFill=1;endArrow=classic;endFill=1;fontSize=19;" parent="1" source="GfWKtc_v5-ul72PLcQqI-12" target="GfWKtc_v5-ul72PLcQqI-19" edge="1">
          <mxGeometry relative="1" as="geometry">
            <Array as="points">
              <mxPoint x="510" y="400" />
              <mxPoint x="510" y="487" />
            </Array>
          </mxGeometry>
        </mxCell>
        <mxCell id="GfWKtc_v5-ul72PLcQqI-12" value="" style="aspect=fixed;html=1;points=[];align=center;image;fontSize=12;image=img/lib/mscae/Data_Lake.svg;" parent="1" vertex="1">
          <mxGeometry x="439" y="365" width="38" height="50" as="geometry" />
        </mxCell>
        <mxCell id="GfWKtc_v5-ul72PLcQqI-37" style="edgeStyle=orthogonalEdgeStyle;rounded=0;orthogonalLoop=1;jettySize=auto;html=1;startArrow=none;startFill=0;endArrow=classic;endFill=1;fontSize=19;" parent="1" source="GfWKtc_v5-ul72PLcQqI-15" edge="1">
          <mxGeometry relative="1" as="geometry">
            <mxPoint x="450" y="360" as="targetPoint" />
          </mxGeometry>
        </mxCell>
        <mxCell id="GfWKtc_v5-ul72PLcQqI-38" style="edgeStyle=orthogonalEdgeStyle;rounded=0;orthogonalLoop=1;jettySize=auto;html=1;entryX=1;entryY=0.25;entryDx=0;entryDy=0;startArrow=none;startFill=0;endArrow=classic;endFill=1;fontSize=19;" parent="1" source="GfWKtc_v5-ul72PLcQqI-15" target="GfWKtc_v5-ul72PLcQqI-10" edge="1">
          <mxGeometry relative="1" as="geometry" />
        </mxCell>
        <mxCell id="GfWKtc_v5-ul72PLcQqI-39" style="edgeStyle=orthogonalEdgeStyle;rounded=0;orthogonalLoop=1;jettySize=auto;html=1;startArrow=none;startFill=0;endArrow=classic;endFill=1;fontSize=19;" parent="1" source="GfWKtc_v5-ul72PLcQqI-15" target="GfWKtc_v5-ul72PLcQqI-9" edge="1">
          <mxGeometry relative="1" as="geometry" />
        </mxCell>
        <mxCell id="GfWKtc_v5-ul72PLcQqI-15" value="" style="aspect=fixed;html=1;points=[];align=center;image;fontSize=12;image=img/lib/mscae/Logic_Apps.svg;" parent="1" vertex="1">
          <mxGeometry x="289" y="201" width="50" height="39" as="geometry" />
        </mxCell>
        <mxCell id="GfWKtc_v5-ul72PLcQqI-35" style="edgeStyle=orthogonalEdgeStyle;rounded=0;orthogonalLoop=1;jettySize=auto;html=1;entryX=0.016;entryY=0.888;entryDx=0;entryDy=0;entryPerimeter=0;startArrow=none;startFill=0;endArrow=classic;endFill=1;fontSize=19;" parent="1" source="GfWKtc_v5-ul72PLcQqI-16" target="GfWKtc_v5-ul72PLcQqI-12" edge="1">
          <mxGeometry relative="1" as="geometry" />
        </mxCell>
        <mxCell id="GfWKtc_v5-ul72PLcQqI-41" style="rounded=0;orthogonalLoop=1;jettySize=auto;html=1;entryX=1;entryY=0.5;entryDx=0;entryDy=0;startArrow=none;startFill=0;endArrow=classic;endFill=1;fontSize=19;" parent="1" source="GfWKtc_v5-ul72PLcQqI-16" target="GfWKtc_v5-ul72PLcQqI-3" edge="1">
          <mxGeometry relative="1" as="geometry" />
        </mxCell>
        <mxCell id="GfWKtc_v5-ul72PLcQqI-42" style="edgeStyle=orthogonalEdgeStyle;rounded=0;orthogonalLoop=1;jettySize=auto;html=1;startArrow=none;startFill=0;endArrow=classic;endFill=1;fontSize=19;" parent="1" source="GfWKtc_v5-ul72PLcQqI-16" target="GfWKtc_v5-ul72PLcQqI-4" edge="1">
          <mxGeometry relative="1" as="geometry" />
        </mxCell>
        <mxCell id="GfWKtc_v5-ul72PLcQqI-43" style="edgeStyle=orthogonalEdgeStyle;rounded=0;orthogonalLoop=1;jettySize=auto;html=1;entryX=1;entryY=0.5;entryDx=0;entryDy=0;startArrow=none;startFill=0;endArrow=classic;endFill=1;fontSize=19;" parent="1" source="GfWKtc_v5-ul72PLcQqI-16" target="GfWKtc_v5-ul72PLcQqI-5" edge="1">
          <mxGeometry relative="1" as="geometry" />
        </mxCell>
        <mxCell id="GfWKtc_v5-ul72PLcQqI-16" value="" style="aspect=fixed;html=1;points=[];align=center;image;fontSize=12;image=img/lib/mscae/Data_Factory.svg;" parent="1" vertex="1">
          <mxGeometry x="289" y="430" width="50" height="50" as="geometry" />
        </mxCell>
        <mxCell id="GfWKtc_v5-ul72PLcQqI-36" style="edgeStyle=orthogonalEdgeStyle;rounded=0;orthogonalLoop=1;jettySize=auto;html=1;entryX=-0.026;entryY=0.616;entryDx=0;entryDy=0;entryPerimeter=0;startArrow=none;startFill=0;endArrow=classic;endFill=1;fontSize=19;" parent="1" source="GfWKtc_v5-ul72PLcQqI-17" target="GfWKtc_v5-ul72PLcQqI-12" edge="1">
          <mxGeometry relative="1" as="geometry" />
        </mxCell>
        <mxCell id="GfWKtc_v5-ul72PLcQqI-44" style="edgeStyle=orthogonalEdgeStyle;rounded=0;orthogonalLoop=1;jettySize=auto;html=1;entryX=1;entryY=0.5;entryDx=0;entryDy=0;startArrow=none;startFill=0;endArrow=classic;endFill=1;fontSize=19;" parent="1" source="GfWKtc_v5-ul72PLcQqI-17" target="GfWKtc_v5-ul72PLcQqI-7" edge="1">
          <mxGeometry relative="1" as="geometry" />
        </mxCell>
        <mxCell id="GfWKtc_v5-ul72PLcQqI-45" style="edgeStyle=orthogonalEdgeStyle;rounded=0;orthogonalLoop=1;jettySize=auto;html=1;entryX=1;entryY=0.5;entryDx=0;entryDy=0;startArrow=none;startFill=0;endArrow=classic;endFill=1;fontSize=19;" parent="1" source="GfWKtc_v5-ul72PLcQqI-17" target="GfWKtc_v5-ul72PLcQqI-11" edge="1">
          <mxGeometry relative="1" as="geometry" />
        </mxCell>
        <mxCell id="GfWKtc_v5-ul72PLcQqI-17" value="" style="aspect=fixed;html=1;points=[];align=center;image;fontSize=12;image=img/lib/mscae/Data_Factory.svg;" parent="1" vertex="1">
          <mxGeometry x="289" y="550" width="50" height="50" as="geometry" />
        </mxCell>
        <mxCell id="GfWKtc_v5-ul72PLcQqI-32" style="edgeStyle=orthogonalEdgeStyle;rounded=0;orthogonalLoop=1;jettySize=auto;html=1;entryX=-0.068;entryY=0.504;entryDx=0;entryDy=0;entryPerimeter=0;startArrow=none;startFill=0;endArrow=classic;endFill=1;fontSize=19;" parent="1" source="GfWKtc_v5-ul72PLcQqI-18" target="GfWKtc_v5-ul72PLcQqI-20" edge="1">
          <mxGeometry relative="1" as="geometry" />
        </mxCell>
        <mxCell id="GfWKtc_v5-ul72PLcQqI-18" value="" style="shape=image;verticalLabelPosition=bottom;labelBackgroundColor=#ffffff;verticalAlign=top;aspect=fixed;imageAspect=0;image=data:image/jpeg,/9j/2wCEAAEBAQEBAQEBAQEBAQEBAQEBAQEBAQEBAQEBAQEBAQEBAQEBAQEBAQEBAQECAgICAgICAgICAgMDAwMDAwMDAwMBAQEBAQEBAgEBAgICAQICAwMDAwMDAwMDAwMDAwMDAwMDAwMDAwMDAwMDAwMDAwMDAwMDAwMDAwMDAwMDAwMDA//dAAQAGf/uAA5BZG9iZQBkwAAAAAH/wAARCADiAMgDABEAAREBAhEB/8QAywABAQACAwEBAQEAAAAAAAAAAAoICQUGBwMBBAIBAQADAAMBAQEAAAAAAAAAAAAHCAkEBQYCAwEQAAEEAQIEAgUIBggEBQUAAAIBAwQFBgAHCBESExQhCQoVFiIjMTY4dne1txdBYWKh4SQyNFFSU5HwcoGisRglQkNjGRomM0QRAAECBAQDBAUJBwIDBgcAAAECAwAEBREGBxIhCBMxFCJBUSMyN2F1FTVCUmJxdLK0FiQzU2NygXOhGEORCTRkk7HRgpKio8Lh8P/aAAwDAAABEQIRAD8Av40hDSENIQ0hDSENIQ0hDSENIQ0hDSENIQ0hDSENIQ0hDSENIQ0hDSENIQ0hDSENIQ0hH//Qv40hDSENIQ0hDSENIQ0hDSENIQ0hDSEeDcQPE3sXwuYcecb5biUWC05pIGqiTXjlZDksuMAm5X4tjUEJF3kM4e4HWMVhwWRJDdJtvmaewwXgHF2YNUFIwjIvTk0LaykWbaB6KddVZttOxsVqGoiyQpVgfHY1x/hDLylmr4vnmZOVN9AUbuOqHVLLSbuOK6XCEnSDdRSm5Ghr/wC4tw39M/gv0A33/h+/sHt/27D/AEtdfjOfvP7udfun4XwXwex/H93r+U9o/wDs6uL/AMD1S/ZXm/LTP7a+ty+WrsdtP8Lm/wAa+rfn8u1u7yPpxTb/AI5aX+1fK+RHv2J9XmcxPbL6v4vKvybaduRzL373P+hG+Xh+4m9i+KPDgzjY3cSizqnBI42sSE8cXIcalyQI26/KcanBHu8enF2y6BlMNi8IqbRON8jWnWNMA4uy+qhpGLpF6TmjfQVC7boHVTTqbtuJ3FyhR0k2UEquBcnBWP8ACGYdLFXwhPMzkqLawk2caUeiXmlWcbVsbBaRqAukqTYn3nXj49jDSENIQ0hDSENIQ0hDSENIQ0hDSEf/0b+NIQ0hDSENIQ0hDSENIQ0hDSEdYzPNcP26xi4zTPsooMLxHH4pTrvJsotoNHR1UQSEO9Os7F+PEjAThiA9RopmSCPMlRF51MpdSrU83S6Qw9NVF5WlDTSFLcWfJKUgk7bmw2AudhHAqdUptFkHapWJhmVprKdS3XVpbbQPNSlEAb7C53JsN4m641/WAsepPa2AcFlG1k1oPdhSN782q32cchufKNuv4NhM0I8+8dBCEmZ1ukaMLoKiwZTRC4t3srOD2am+XWM0nixL7KEiwsF1XQgPvpulsdQpDOpRB/itqBAo9mpxiyspzKNlYyH5jdJnn0kNJ6glhhVlOHoUre0pBH8JxJBMxm6e8m5m92ZWe4O7edZJuDmdufObf5NZP2EvtCpKzBhgZJGrKuGJdMeJGBmLHb5A02AoiJfbD1BoGE6W3RcNykvJUtod1tpISL+KleK1q6qWoqWo7qUTvFBsRV/EGLao5WsSzb87VHfWcdUVG3glPghA6JQgJQkbJSBtHnfiP2/99d3zvfHR8mPRNrN5NzNkcyrNwdpM6yTb7M6g+cK/xmyfr5faJRV6DMACWNZ1cwR6ZESSD0WQ3zB1sxVUXpMQ0GgYspblFxJKS87S3R3m3UhQv4KT4oWnqlaSlaTulQO8d5h2v4gwlVG61hqbfkqo16rjSik28Uq8FoPRSFhSFDZSSNopz4KPWAseu/ZGAcadG1jNoXahR978Jq33scmOfJNtP5zhMIJE+jdNBInp1QkmMTpoiQYrQk4lCc0+D2alOZWMrXi/L7qMi+sB1PUkMPqslwdAlD2lQA/iuKIBvzlXxiys3y6NmmyGJjZInmEktK6AF9hN1NnqVLZ1JJP8JtIJFIuGZrh+4uMU+aYDlFBmmI5BFGdSZNi9tBvKO1iERB3oNnXPyIkkBcAgLpNVAxUS5EiolIanS6lRZ5yl1dh6VqLKtK2nUKQ4g+SkqAI23FxuDcbReGmVSm1qQaqlHmGZqmvJ1IdaWlxtY80qSSDvsbHYix3js+uDHPhpCGkIaQhpCGkIaQhpCGkI/9K/jSENIQ0hDSENIQ0hDSEfhEICRmSCIopERKiCIonNSJV5IiIiea6AEmw6wJAFz0jSNxt+nE4beGtLbCNmXIPETu/F8RDcYxu1ANsMUngLjarkmbxEkNXkuHI6VOvp0kKSg40/KhuInOzuWPC/jLGpbqeJdVHw6qxu4n95dT19GybFAI6OPabXCktuJisGaHFHgzBPMpeGtNZxGm4s2r91aV09I+LhZB6ts6r2KVONKiSjin44uI/jHyZMg3x3BnXNdDkvSMewSo66XbzE0d5j04/isd44jclGVRspskpVk+2Io9Ic6U5aEYBy0wVlrI9jwrJoaeUkBx9ffmHbfzHSL2vuEJ0tpJJShNzGeOP8zcb5lz3bMVzi3WEqJbYRdEuzf+W0Da9titWtxQAClqsIxP8AEp/tU1IPNiPOTDxKf7VNObDkx6r+hTeb9F36bf0V5/8Aog9q+xP0l+6lz7le1OX9l94vB+zf6/yfX3O33fk+rr+HXQ/tdhv5d/Zjt8p+0XL19m5qOdp8+Xq1e+1r23tbeO//AGPxL8hftP2Cb/Z3maO08pfJ1eXMtp9172vte+0eVeJT/aprvubHQcmHiU/2qac2HJjLDhY44uI/g4yZcg2O3BnU1dMksyMhwS367rbzLEa5D05Bish4IjklWUVsZsYotkw2RIzIb6l5x9j7LTBWZUj2PFUmh15KSG30dyYav/LdAva+5QrU2ogFSFWFpDwBmbjfLSe7ZhScW0wpQLjC7rl3rfzGibXtsFp0OJBIStNzFa/BJ6cTht4lEqcI3mcg8O278rw8NtjJLUD2wyueYttouN5vLSO1Ry5kjqUK+4SOoqbbTEqY4q8s98zuF/GWCi5U8Naqxh1NzdtP7y0nr6RkXKwB1cZ1XsVKbbTGh2V/FHgzG3LpeJdNGxGqws4r91dV09G+bBBJ6NvabXCUuOqjdyJCYiYEhCSIQkKookKpzQhVOaKiovkuqxEEGx6xZ8EEXHSP3SENIQ0hDSENIQ0hDSEf/9O/jSENIQ0hDSENIQ0hGvnjP9Jnwr8EFdJh7lZiOS7nHD8RT7N4KcO6z2YTwAUN+7Y8S1XYZUPo6hpKtXoyvMi4sVuU4CtLK+XWTON8ynkuUeX5NF1WXNvXQwLdQg2Knli1tLQVYkaygHUInzGznwPloypuszHOrWm6JRiy31X6FYuEsoPXU6U3F9AWRpMfnG76YLik4yytsTG4/Q1snNVxgdqsBs5bS3cBVc5Nbg5ejcK4zRXAc5OxeiFTn0Nl4FHQ7i6C5Z5A4Gy55c/y/lHEqd+1PpB0K85drdDPuVdbouRzdJ0jPbM7iAx3mPzKeHDTcMq27KwojWnymHu6t73pshk2B5Woajqp8T+9/H+Wp25sQLyfdDxP738f5ac2HJ90e+8PPDPv1xV5q1gOwu2+Q7g3ydpyzfrmQjY/jcN5TQLLK8nsDi0GNV5K2SA5MkMo84iNtIbpCBeWxbjvC+BqaariicalJXfSFG7jhH0Wm03W4rzCEmw3VZIJHqsJYCxTjqpClYWknZua21FIs22D9J1xRDbafIrULnZN1EA1ocD/AKA3ZnZr2Pn3FXZV2/G5EZY09jBYTcpjZvGpoC24rMqJMai2u478d8V5HYNxK1wCUHK9xURxaG5m8VuJcR8yk4FQulUZV0l8kGbcHmCCUy4I8GytwHcPDcRffLHhPwzhvl1bHakVWspsoMAESbZ8ik2VMEHxcCGyDYsnYxv693cf9he63sOn92fZnsX3c9mQvYXsfw/hPZPsjsez/Znhfkux2+12/h6eXlqqHa5vtXbua523Xr5mo69d769d9Wq++q9773vFsexynZew8pvsOjRy9KdGi1tGi2nTbbTa1trWjQHxxegN2c3lW3z/AIUrKs2I3HkrJnScDnNzHtnMlmuc3EbhxobUu123fedJeZV7MytEREG4DXMnNWwyy4rcSYcDdJx2hdVo6bJD4IE22PeSQmYA/qFDnUl1WwipuZ/CfhrEhcq2A1N0qsquosKBMo4fcBdUuT/TC2+gDSd1RJdxCcNW+/Ctmz23+/O3GQ7fX6d5yudsmBfosjhMudsrTFclglJoclrOv4SehyHhbPm250OCQDfLCeOcMY4poquF5xqbldtQSbLbJ30utqsttXuWkXG4uCCaEYtwJijA1SNJxRJOyk3vpKhdDgG2ppxN0OJ96FGx2NiCB4L4n97+P8teo5seW5Puh4n97+P8tObDk+6N83oqeNf0g+3dlTYjhMU93OG+vkhCs6LdyxsoeK4nAaJsX4+3merFsr2gnRhb6W62GxaVrROEZwBM1fGt2ceUOWmLUOVCaHyfixQuHpZKdbivAzDN0odB8VktumwAdsNJmDA/E9inKBKJCbf+UsPp6STyipaU/wDh3d1sDyCtTIuTyio3FiW1u++Abrx2m6WyGvyHso5Lxe1NuPbMmIqryw+aozbRW1FV7sdSUQUVcFsl6Uz4xdl5iTBzhXPtcym3sl9u6mz5avFtR+qsC5vpKgLxoNlFxEZa5xy6WsPzYlsSBF3JCYKW5lNh3i2LlMw2LX1sqVpSUl1LalaR7PrwsTrDSENIQ0hDSENIR//Uv40hDSENIQ0hGP8AxE8UuwfChhLuf7+7l49t7Qr3W6uPYvnKyHJZjKAp1uJ4vXty8gyawFHBU24cd7str3HVBoSMfT4VwbibG1RFLwzKOzUztqKRZDYP0nXFWQ2nyK1C52TdRAPl8V4zwxginGqYnnGpWV30hRutwj6LTabrcV5hCTYbqskEiSbjj9YK3o3jS3wHhLrbPYTbqR4mE/uDOciPb0ZHCcBxruQZMN2XUbaNPNuc/wDy92ZaNuADjVizzJtby5bcL+G8P8uqY6WiqVYWIYTcSjZ694Gypgj7YQ2QSFNK2MUWzK4pMR4gDlKwKhdLpJuC+qxm3B07pBKJcH7BW4CAUup3ET02V3ZXNhOt7iwm2ttZy5E+ys7KXInWFhOluk/Kmzpspx2TLlyXjI3HHCIzJVVVVV56tayWJZlMvLpS2whISlKQEpSBsAkCwAA2AGwip73OmXlTEwtTj61FSlKJUpSibkqJuSSdyTuTH8Pif9+ev054j8+THYcUxrKs8yOow/CMavswyy/ljAosZxeosL6/uZpiZjEq6erjyrCfIVtsi6GmyLpFV5ckVU4s7VZGmyjk/UXm2JFpOpbjikoQgealKISke8kRypGlTtTm25CmsuzE86rShttBWtZ8kpSCon3AGKY+Bn1efMMp9jbh8bd4/g9AaxrCNshhtlHkZlaRyFt8I2cZdEORXYqw6nwPQ61ZU5QJUWTDeHklQcyeK+Sk+ZSsuWxMTW6TOOpIaSel2WjZThHULc0ov9BxJ3uFlrwmzs7y6tmO4ZaV2UJNpQLqh1s86LpbB6FDepdvptqG1VW0Oy21GwWEVu3GzOAYztxhVV8UahxiuagsOySbbbesrKR8c65uJYsj35sx1+XIIUV1wl89Ukr+Iq7impLq+IZp6cqK+q3FFRA8EpHRCBfuoQEpT4ARd+gYcoWFqaij4dlWZOmo6IbSEgnxUo9VrNhqWsqUrxJj0/XSx3UNIQ0hHl+8Gym0+/8AhFjtvvPgGNbjYTaKLkmhyavCYw1KbExYsa2SKtT6a3iI4XYmQ3WJTCkqtuCq89d1QMR13C1SRV8OzT0pUkdFtqsSD1SoeqtJ8UKCknxBjpMQYcoWKqauj4ilWZymr3KHE3AI6KSfWQseC0FKh4ERJl6Qf0CNjtNFst0uEvOYN9h5yEJ7ZvcjIK2nzGuJ53mTGD5jZvwKnL40cHFJIU9Ylg0w0qo/OdLkl8MoeJV7FUwjD2L5NwVS201LNqUyQB1fbSCpm521p1NlR3S0Bc57Z85CULLSlO4xpNUl2aAk7y024lD1z9CWWbdpNtw1pDwSkkF09PFeHD0XeKYr4HKd/wCwjZvfijMljBKd6S1h1W8J90RubD+jT8okN9IoTQjGgoXWBjKbVC1MlYxzMv3YpQLTXTWbaz9w6J+/dX9pjP6t47fmLy9HSWmenMVbWf7RuE/furoe6do2w1lXWUtfDqaaug1NVXx24sCsrIkeBXwYrSdLUaHCittRo0doU5CACIinzJrwS3FurLjhKnCbkk3JPvJ3MR8txbqy44Spwm5JNyT5kncxybD78V5qTGedjyI7gPMPsOGy8y82SG26062om242SIokioqKnlr8nG23W1NOpCmlAgggEEHqCDsQfEGPuXmJiUfRNSji2pptQUhaFFKkqSbpUlQIKVA7gggg7iMxds+NC+wqKkTdI/ePGILKuSMkdkR4l9UQmG+p2TNly3WINtHYaBSIpJsveZEb5ckTUGYvyOpVYUqbwsRJ1FX/ACrEsLJ8ABdTRP2ApHQBsbmL3ZM8cOMMLFmg5mNO1yhgpSmZRb5QbGw7xJSibtb/AJpQ8SSpT69kxnBsdxI7E8SePzsn2L3Tw3cypqZztXdFjFxGnTaKxZdeZWJd1iGNjVG+scjjk80Dctjk8wTjJA4VasTYQxLg6dFPxLJvSkwoXTrT3Vj6zaxdCxvvpJ0nuqsoEDUrB+N8L48pKKzhabbmZRQBUN0Otki+l5lYS40v7K0pJ6i4sT7drzcerhpCGkIaQj//1b+NIQ0hHV80zfDduMYuM23AyvHcIw7Hohz73Kcrua/H8fp4QKiFJsre0kRYMNnqJBRTMeZKiJzVUReXIU+eqk23IU1l2YnnVWQ22lS1qPklKQST9wjiT9QkaXKOVCpvNS8i0nUtxxSUISPNSlEAD7zExHHT6xji+PJc7d8DNA1l9ygPQX9+M6qZUbFa94hVs5OA4LPCJaZHIY7nNmbcjDhg+1/YZrBIZW4y64XZqZLdUzEdLEvsRJsqBcUPJ54XSgHxQ1qUQf4jahYVEzG4pJWVDlLy6aD8xuDOPJIbSfNlk2UsjwW7pSCP4biTcyobu74brb+Zxa7k7zbgZPuRm9yarMyDKbN+wkgwjjjjNdXMEowqamhq6QxoMNpiHFBehloARBS5tDotFwzTkUmgSzMpTm+iG0hIv4qUeq1m3eWolSjuok7xS6u1qt4nqK6tiCaem6i51W4rUbeCUjohA+ihISlI2SANo8y8R+1f467jnR03Jh4j9q/x050OTG6/gS9CHxRcW/sbOtxYsnh52PmHHlDlGZ1T/v1llaXQ6q4NgMhyHYFHlsGPasrMoUAgcR2P4zoJpYCzF4iMI4K5lOpRFUxCm45bShyW1dPSvC4uD1bb1ruLK5dwYsBlzw6Yvxty6jVgaXh5VjzHU+mcT19CybGxHRxzQixunmWIixvhA4AOGDghxv2PsfgEeNkk2IEXJNz8nNm/3MytE7auDa5M7Gj+BrnDZA/Z1azArBcHuDHRxSMqJ46zNxhmHN8/EU0VSiVXbl27ol2/7W7m6t7a3Cty22u1gL4YFyxwdl3KcjDkqlM2pNnJhyy5hz+5ywsnYHQ2EN33CL3JzR14CJAhpCGkIaQj+eXLiwIz82dJjwocVo35MuW83HjR2W06nHn33iBploBTmpEqIia/Rll6YdSxLoU4+sgJSkFSlE9AALkk+AEcacnZOnSrk9UHWmJFlBWtxxSUIQkC5UtaiEpSBuSSAB1jCfdjjJoKLxNNtnHZya1HrZcyGYDoY9DPp6VOC0itSrl1s+fIvko/khCbory1PWDcjqlUNE9itSpSTNiGU2Lyh9s7paBHh3l+BSg7xQfObjnw3h3m0LKdtFWrIulU64FCSbNrXaTdLk0oG+/o2dgpK3km0a7stzTKc6tnbvLLudd2LnNBclu/IxmlXn4eDFbQIsGMi+aNsgAc/PlzVVWzVGoVIw9JiQozDbEsPBI3UfNajdS1faUSfC9rWzFxpjzF+YdZXX8Zz8xP1NWwU4rutp66GmxZtlu++htKU3ubXJJ6xrto8jDSEYV8SXHdsjw5DNpp9mucbisAYtYBislh6ZDk9tSbHKbfk9X4uypKPUDqOzug0NuK4PNU7umUGdqRCwOXLfXV/wDiOqv9h7xHraBg2sV6zqE8mRP/ADFjYj7Ceq/8WT4FQjQFxEca29fEdKkw8mvFx7B1eQ4W32MOSIOPADZoTB2591ZuSTQUBJXJZm0DqKTLTKL0pItMo9PpYCmU6pjxWrdX+PBI+7/JMTTRMIUqhJCmEa5u27i7FX/w+CR7k726k9Y8a2i3w3W2Dziq3J2Z3AyfbfN6Y0WHkGLWb9fJNhXG3Hq6xYFShXNNMVoRkwZjT8OUCdDzRgqiv1XKLRcTU5dJr8szN05zqhxIUL+CknqhYv3VpIUk7pIO8e8oVareGKiirYfmnpSot9Ftq0m3ilQ6LQfpIUClQ2UCNoqv4FvWMcXyFKbbvjmoGsQuVBmCxvxgtTKk4rYPCKNhJz7BYAS7THJD/b5vTaYZkM33f7DCYFTGmWYvC7NSxcqmXbpfl9yZN5QDiR5MvGyVgeCHdKgB/EcUbG6OXPFJKzQbpeYrQYmNgJxlJLaj5vMi6myfFbWpJJ/htpFxTvheb4buPjFPm23+V47m+HZDECfRZTilzX5Bj9xCNVQZNbb1ciVBmM9QqKqBlyJFReSoqJUefp89S5tchUmXZeeaVZbbiVIWk+SkqAIP3iLdyFQkapKN1CmPNTEi6nUhxtSVoUPNKkkgj7jHaNcSOXDSEf/Wv40hGon0oPpYsM9HZBoMTibb32528mdY4/kWKVJujSYBS1SWEymZt8vyVPEWBkVlDd7NdCjG7KFg0ckREJtwpuymyUq+ZrTtXU+mVw1LPhp1wArcLmlK9CE7JB0qHfWoAX7qV2UBCGbWdtIyxdao4YVNYmmWC600SENhvUpGta91EaknuISSbHUpu6SYg+Ljj34oeNzKfeHfrcadcVEKW9KxrbqiR2h2zw5HSd6Qx3EY8h2L4tth5WVsJpzbZ9kRB+U6gjyvjgvL7CeAZTs2HJVLbykgLeX333f73CL2uL6EhLYNylAuYoVjXMPFmP5vtOI5pS2EqJbYR3GGv7GwbXsba1lThGylmwjDvuF+zXt9Zjw2hMO4X7NNZhoTGdnBl6Ojis46L5uLsvgL7GERrAYORbvZekmg2yxwhIPFNu35xX3b+1iA6BHXVLM+wAXAM2QbLuJH2OM0sJZfy5XXJkGfKbolm7LfX5dy40JPgtwoQbEBRO0SHgbKzF2YMwEUKWIp4VZcy5dDCPPv2JWoeKGwtYuCUgbxZnwH+hM4WeDhKjNcthM8QO+cPtS/f7OqeImNYxYIA8y2/wACdcn1lMccxQmp81ywtAcRTafYEu0NHMw8+8YY41yEmo03D6tuS0o63E/1ntlKv4oSENkbFKiLm82XeQWDsDaJ+cSKliFO/OeSNDav6LO6U28FqK3Ad0qSDYbl9QbE6Q0hDSENIQ0hGOW7HEzgG2SSK1h9Mryprrb9hVEhvswnxHmiXVpydj16IXkTYC9IRfnaRPNJPwblTiPFmmacT2Ojmx5ziTdQ/pN7FfuJKUfbvtFXs5eLDLbKYO0qXcFZxii6eySy06WlgdJqYspDO+xQkOPDa7QB1DWjudvfn+60k/eK1WPTC6jkTGqvuRKSN0rzbJyOjhOWEkF80ekk6Yqq9HSPIUtXhPAGG8HND5MZ1TxFlPuWU6rzsbWQk/VQEg7XudzlHm1xAZk5xzav2mnC1QQu7cjL3blUW9UqRcqeWOocfU4oEnRoTZI8i17SIThpCO+4Ftlm25dl7NxCjk2KtkCTJ5J4eprQNU+UsLF3pjMchVSRvmTziCvQBKnLXncR4roOFZXtVbmENXB0o9ZxZHghA7x8r7JBI1KA3iR8uMpsfZr1X5KwTT3ZrSoB149yXYB8Xn1WQjbvBFy6sA8tCyLRsh2n4RsMwpY1vmRMZrkbXS6LEhjljUB1PNPD1zyKVk42v/uSkUF8lRoCTnqrmMs6K7XtclQwqQpZ2uD6dY96x6gP1W9/ArUI1Mya4K8CYCLVbxyW6/ihFlBK0fuLKvsMK3fI+u/dJ2UllCgDGC3Hh6EPha4wVuM4wiIxw9b5TlkzXM2waniriOWWbvNwnc/wFlyBW2MmW+RG9Y17lfZOPOK7IdldKNrz8vM/8YYK0U+oqNToCbDlOqPNbSP5Lx1KAAsAhYWgAWQEXJiXMw+H3BuNAuepiE0uvG55jKBynD/VZGlJJPVbehZJuorsBEZ3GR6PLio4Gcg9n73YC+mIzZpw8c3VxRX7/bTJiTqVluHkTcZgqmzfbAiGvs2YNgoiRIyoJ1reHBGZuE8fy3NoEyDNpTdbDlkPo+9FzqT9tBUjw1X2ijWOMsMWZfzPKr8sRJqVZEw3dbDn3LsNKvsLCV+Om28YO9wv2a97rMeB0Jh3C/ZprMNCYzE4R+Pfih4I8p94dhdxp1PUTZbMrJdur1Hb7bPMUaJrqDIsRkSGovi3GGUZSwhHCtmGSIGJTSEXPxGNMvsJ4+lOzYjlUuPJSQh5Hcfa/scAva5voUFNk2KkGwt7nBWYeLMATfacOTSkMKUC4wvvsO/3tk2vYW1oKXANkrFzFvnovvSxYZ6RODf4nL23vtsd5MFxxjIsrqQdG7wC6qlsIdM9b4hkq+HsAIbKY13q6bGB2KL4I3IloLjg0OzZyUq+WTTVXS+maw1MvlppwgocDmlS9C07pJ0pPfQog27yUXSDfXKXO2kZnOu0csKlcTSzAddaBC2y3qSjWheygNSh3FpBFxpU5ZRG3bUIxN8f/9e/jSESBesUNtvcTWyjTrYOtubCtCbbgiYGK7g5pzEwJFEhVP1KmtOOB9CHMvKwhwBSDWDcEXB/dmOojMHjkWtvMSjrbJSsUYEEGxB7S/0IiafINumX+5KoiGO95kUB0v6O4vzqkd1eZMEv6hLmHNfnFNWhq2D23bv0shDn8s+qf7T9H7jce9IirdIxi41Ziqgrb/mD1h/cPpD3ix9yjH02b4dd8OIPcKDtXsztlle4OdziBfYtDWm8NfEJ0WStry0dVmox+hZcNO5Pmvx4bfNOp1Oac4lxNW6Vg2UXPYofbkpZvqXDYk+SE7qcUfopQFFXgDEu4YolVxnNokcLMOTsy50DYuAPrLVsltIv3lLKQnxIitLgO9XS26wJKjcXjduYm6eXt9qbF2XxOfNi7aUrvQLjQZfkLCQLzN50Z3kpRoywasTAgcWeyWqX5hcTNTqOumYDQqUkjsZpwAvq/wBNBuhoH6ytbljcctQi6eXnDHTKboqePVpnJ0biVbJDCT/UWLLdI+qnQ3cWPMSYpkxvGcbw2hqcVw/H6TFMYoYTNbR45jdVAoqGmro6dMeBU09XHi19dCYHyBplsAFPmRNVXmpqanphc3OuOPTbiipa1qK1qUepUpRJUT4kkmLVSsrKyMuiTkm22ZRtIShCEhCEpHQJSkBKQPAAARzevwjkR1S/zvCcULt5LluN0LvISGPbXVfBkmhIiircWRIbkOcxVF+EV8vP5tdxTcPV6sDVSpKamEebbS1pH3qCSB/kx47EmYmAsHK5eK61Sqc9YEImJpllZv00trWFq2N9knbfpvHEVm7W19zISJWbg4dLlEoiEZvIasZDqlz5Iwy5JBx9fh8+hC5eXPlzTnzZvBmLZFvnTdNnkMjqosuWH3kJIH+bR0lJznyjrsyJKk4mob84SAG0zsvrUT9RJcCl9N9INtr2uL+goqKiKioqKnNFTzRUX5lRf1ouvNdNj1iSwQRcdI843E3ZwXa6vSblty1GkOtmcGmiIMu7slBF8oVeBifbUk6VedVqOBKiE4PNOfqcM4NxDi6Z5FGYKmwQFuq7rSP7l9L+OlIUsjok2iLczs5svcoqb2/Gk8hqZWklqWbs5NP28GmQQbX7vNcLbKVEBbibi+tjdjiuznP/ABVTjiuYXizvU0seA+q3liyvkvtG2bRs2W3UTzYjI2PIlAzdTz1abBuTuH8OaJ2qWn6uN7rHokH7DZuCR9Zeo7ApSg7RlZnNxkZhZkc6i4XKqDhBd0lDK/3t5PT08yLFCVDq0wEJsShxbw3OKyqqqqqvNV81VfnVf711L8U9JJNz1hpH8jlKakt8isY1RRVk23s5ho3Gg18Z2VJdJVRFUWmhIkAefMiXkIp5qqJ564k9PyVMlVTtQdbZlEC6lrUEpH+T4+Q6noN47ehUCt4nqjVEw7KTE7Vn1WQyyhTjij7kpBNh1Uo2SkbqIAJGe20/Bcq+Gut2ZfSnwuhh9RK+JfNPk7q5jkqIioi82oZc/NF76eYarpjLPYDVI4NRv0My4n/dppX+ynR5jl9DGjmTPAeTyq9nM9YbKFNlnP8AaamkH77tyyvqntI3RGfFJRU2NVkamx+rg09VDDojQK6M1FjN8/MiRtoRQnXC+IzXmZkqqSqqqq1zn6hPVWbXPVJ5x+cWbqWtRUo/5PgOgA2A2AA2jR2gYeoWFaU1QsNykvI0dhNkMsoS2hPmdKQLqUd1KN1KUSpRKiSeW1w47mGkI4DKcUxfOcduMQzXHKLLsUyGC9WX+M5NUwb2guq2QnJ+Ba1FmxJgWEN5E+Jt1swXl82uTJzk3T5pE9IOuMzjSgpDiFFC0qHQpUkgg+8GONOSUnUZVyRn2m35J1JSttxIWhST1CkqBBHuIiY/jy9XOwbNPbG4/A5dxducncWTYTdjsyspkjb+3d7avGzguVSEnXGGzZDwEjcKwWbWG48Ig9XR20FbW5ecTc9JaKXj9szMqLJE20kB1O9rvNiyXAB1WjSsAbodUq8VPzE4YpGd11TL9wS00bqMo6ollXjZlw3U2SeiF6myTYLaSm0Sbbu8P29Wwm4U/aveLbTK9vs+ri+Wx/Ia047kmMpq23Z1U9pXqq7o5CiqtT4T8iE8KdQOknnq5mHKvTMXyjc9hl9udlXfVU0dW/iFDYoUPpJWElP0gIphiSkVPB825I4nYckptr1kujTt4FJ3CwfoqQVBX0SY/wB4/t0yx25V6QyHvIhgNF/R21+dEkOpyJ8k/WI8g5p85JqV6Tg9tqz9UIW5/LHqj+4/S+4WHvUIiWr4xcduxSgUN/zD6x/tH0R7zc+5Jilj1ddttnia3raabBptvYV0QbbEQABTcHC+QgAogiKJ+pE1V7jgQhvLyjobASgVgWAFgP3Z/oItJwNrW5mJWFuEqWaMSSTck9pY6mK/dZjxp9H/0L+NIRIL6xJ9Z7ZL7hmfzBzTWnXA77Pqv8ZP6ZiMv+Of2hUj4MP1L8T7auxFI4qo9XEEUw3iuNBHrLJtpBIuSdSiFVn6iKl86iKmvJP1c1/v1nLx2fO2G/w85+eXjR/gP+acSHx7RJ/kmIpb1QeL+x+EQiKkSoIiikREqIIiic1VVXyRERNf0Ak2HWP4pSUpKlEBIFyT0AjVtxBcYtlaWc/ENq7I6uhhOuRZ2WwjJuzu3W/gdGnkIgnW1YOc0F5te+/0oQmALyO1mXOTklJyzdaxa0HqgsBSJdYu20DuOYnotZHVJ7iLkFKlbpyl4jeMau1epzGDMpJlUnh9lZbdqDRIfmlDZQll7FhgG4DqPSu2CkLQ2bLwYevnZLzsiQ84+++4brz7xk68864Skbjrh9RuOGSqqqqqqrqwDbbbSA20EpbSLAAWAA6AAbADyjPt91+afXMzS1uTLiipS1KKlKUTcqUokkknckkkmPl7YT+9P9/8tfdo/HTHsGFcR+6GA1kylx7KZQVcqOsdmJPBq0bqVUkXxFMM9t8a55B6k6QTsr1qSgpoJD4mu5d4QxHONz9TlEGbQq5Ui7Zc+y7oI1jpue8LWCgkkGbcCcQ+cGXFHfoOGKu8mlPNaENvBMwmXN/XlQ8FhlVrjSn0Z1FRbKwlSekT7qwyKY/dWllMt7Ce4r0qwsJL0uZId/qqT775uOmQoKJ5r5InJPJE16yUk5SnyyJORabZlWxZKEJCUpHkEiwERDWKxV6/UnqxXZl+cqz6tTjzy1OOLV5qWslR2sBc7AADYAD+TXIjrI/URSVBFFIiVEEUTmqqvkiIieaqq6EgC56R9JSpSglIJUTYAdSYy22n4SM1zfw1tmHfwnG3OlwQlMc8ksWuaLyi1j3T7ObcRFRHZSCSeRCy4K89QxjLOeg0DVJUTTP1UbXSfQIP2nB65H1W7jqCtJFoujk1wWY9x/yq1jjmUDCqrKCXEfvzyf6bCrchKtxzJiyh3VJYdQbxsh2/2vwjbKt9nYhSsQVcARm2Tv8ASbiyIV6uufYuJ33kU/iRtOlltV+ABTySrmJMW1/Fk12qtPqcAPdQO62j3IQNhttqN1H6Sid41My2yjwBlNS/kvBMg3LlSQHX1d+ZfI3u8+rvq33CBpaQT6NCBsPQNebiSoaQhpCGkIaQhpCJovWOm2/c/hSd6A7vvLu033Oke52/ZeBF0dfLq6Orz5c+XPV+eBQn5VxGPDs8n+eYigPHgB8k4bV49onPyS8Ss60ZjOGKCfV2/rPb2/cM9+YOF6pPxxez6kfGR+mfi7nAx7Qqv8GP6liK+tZixqBH/9G/jSESC+sSfWe2S+4Zn8wc01p1wO+z6r/GT+mYjL/jn9oVI+DD9S/E+2rsRSOKqfVxfoXxW/ajaX8Kz3WcvHX87Yb/AA85+eXjR/gP+aMSfiZP8kxFLWqDxf2MOuN/dCTtzszIgVckotznlk3izDrRKD7FScZ+ZfPtEhCqC7CjpEJfNUSXzTkvJUlvJjDjVexgmYmkhUnItl8g9C4CEtA/co6x/Z/g1M4y8w5vA2UDtOpbhbq1cmBJJUk2UlgoUuZUDces2nkE7kB+4sbEaN/bP72rsWjFjSYe2f3tLQ0mHtn97S0NJh7Z/e0tDSY7hiF335jteZc0eaJ5pP7nGuXWif8AE2qqv/Dr5UI/F5FhqjK3a3YfcDdZ5t6lrvZ2Po4oSMnthdjVIdB9LoQy6FetJIKiooMCSCXk4QIvPXgsXZiYbwc2UT7vNqVu6w3ZThuNirezaT5rIuPVCukTflDw6Zk5yPpfoMr2XDWqy5+ZCkS4sbKDW2qYWNxpaCglVg4psG8bL9qeHDb7a4Y1g3ETI8qaECLI7hltxyM+PJVKmgL3I1SIknwmPXJRFVFdJPLVVMY5o4lxcVSyl9lo5v6BokBQ/qr2U57wbI8QgHeNXcnOFvLXKFLVSaZ+VMYJAJnplKVKQseMqzuiWAPqqTqfsSC8obDIHUbRZSGkIaQhpCGkIaQhpCGkIml9Y6+hfCl9qN2vwrAtX44FPnbEn4eT/PMRQLjw+aMN/iZz8kvEq2tGozgign1dv6z29v3DPfmDheqT8cXs+pHxkfpn4u5wMe0Kr/Bj+pYivrWYsagR/9K/jSESC+sSfWe2S+4Zn8wc01p1wO+z6r/GT+mYjL/jn9oVI+DD9S/E+2rsRSOKqfVxfoXxW/ajaX8Kz3WcvHX87Yb/AA85+eXjR/gP+aMSfiZP8kxFLWqDxf2NTPpTZEyLXbJugqpXrN3Abkr8PT4wmMOKCi8/i6lZbkcuXl5Lz/VqyvDoWufVkq/jlEsR/aC/q/3KYzi/7QhuaVJYUcRfsYdqIV0trKZLl+/1Q5/v7rafvbP7/wDH+erQ2EZnaDD2z+//AB/npYQ0GHtn9/8Aj/PSwhoMPbP7/wDH+elhDQY7rt5ZFJy+qaQlJCSepcvNEEa2YvMuXzJ1In/PXysDTH4TKbMkn3f+sZzYzvNupiAx2sfzvIokWI221Fr5E4rSrjtNCgNtM1Vqk6tbaABREFGkHknLly146q4GwhWypdSp0qt5ZJUsI5biiepLjehZJO99V7xIuFM9s4cEoaZw3iKqMyjKQltlbpmJdCUgBKUy8wHWEpAAASG7WFrWjJfC+N7La8mo2c45WZFFTpE7GnJaW1Ef/W65HLxNZLc/uAAij+3UVV3IKjTILuH5p2Vd8EOelb+4HuuJHvJcPui1uBOP/GdNUiVzBpcpU5QWBfliZWYA8VKQdbDh8kpTLj7UZs7db47bbnoDONXzbduTauHjtsCVt42gipuIERwzano0CczOI5IbBPnJNQLifL/FOEiV1WXJkgbB5s62j4C6gAUXPQOJQo+Ai/WWHEFlZm2lLGFKilNaKbmSmRyJtNhc2bUSl4JG6lS63kJ+koHaPXNeLiaYaQhpCGkIaQhpCGkIml9Y6+hfCl9qN2vwrAtX44FPnbEn4eT/ADzEUC48PmjDf4mc/JLxKtrRqM4IoJ9Xb+s9vb9wz35g4Xqk/HF7PqR8ZH6Z+LucDHtCq/wY/qWIr61mLGoEf//Tv40hEgvrEn1ntkvuGZ/MHNNadcDvs+q/xk/pmIy/45/aFSPgw/UvxPtq7EUjiqn1cX6F8Vv2o2l/Cs91nLx1/O2G/wAPOfnl40f4D/mjEn4mT/JMRS1qg8X9jCD0gW0Vlurw93UnHoZzsn27mN53VRGE5yp8CtiSo+R1zAohG66dJKdkNtAim+/FbbH4iRFlTJ7EzOG8YtibUEyE4gsLJ6JUogtqPl3wEknZKVKJ6RWTizy2msxMpXzSmy5XKQ8J1lI9ZaG0qTMNjxJLK1OJSAStbaEjcxMf71x/8z/q1eS0Yu9jch71x/8AM/6tLQ7G5D3rj/5n/VpaHY3Ie9cf/M/6tLQ7G5GSvD/XvWj9llboEkKOBVVeZ/1X5TituzHW+ac1SM0Ih1J5KrpJ84ry/Nw+EdTUvRWZPrHc/d4RlFr8Y6mGkI+rLz0Z5qRHddYfYcB1l9lw2nmXWyQgcacBRNtwCRFRUVFRdfLjaHUFt1IU2oWIIuCD1BB2IPlH7MPvyr6JmVWtuZbUFJWklKkqBuFJULEEHcEEEHpGb+zHF/c0bkXHt0nJF7SqrbDGUiCu3tYPJARbQARSu4g8kUnOXix+JVV5VQUgHHWScjUErqeEQmXn9yZfo054+j/lK8k/wzsAEbk6A5Ecblcw+6zhnN5TlRoJIQioAFU2wOg7QBvNNjYldu0jvKKnyQkbJau0rrqvh21RNjWVZYMBKhTobwPxpMdxOYOsutqQmK/wXyXzTVWZuUmpCZXJzra2pttRSpCgQpJHUEGNUaRV6XXqYxWaLMNTVJmWw4060oLbcQropKhcEf8AodjuCB/frjx2MNIQ0hDSENIRNL6x19C+FL7UbtfhWBavxwKfO2JPw8n+eYigXHh80Yb/ABM5+SXiVbWjUZwRQT6u39Z7e37hnvzBwvVJ+OL2fUj4yP0z8Xc4GPaFV/gx/UsRX1rMWNQI/9S/jSESC+sSfWe2S+4Zn8wc01p1wO+z6r/GT+mYjL/jn9oVI+DD9S/E+2rsRSOKqfVxfoXxW/ajaX8Kz3WcvHX87Yb/AA85+eXjR/gP+aMSfiZP8kxFLWqDxf2GkI0HcePowson3F1u/wALdXGnjZOO2eVbPsvMQZQWDzhuz7bAHJTjMFyNJUlddqTNomzQvBqaG3Fbs5lrnSwxLN0HGK1DQAluaNyNI2Sl61zcdA6Abi3MtYrOfGfPCW/O1B/GOVzSDzlFb9PBCSFk3W5KkkJ0q9ZTBKdJvybgpaToEymXleDXUrHM1x7IMRyGEvKZR5NUWFFbxV6jD+kV1pGiy2kU2yRFIERVRf7tWVk56TqDAmpB1p+WV0W2sLSfuUkkf7xQ+pYZqVGm1U+ryz8rPI9Zt5Cm1j70rAUOnlHAtZq4842yypuuumDTTTSE44444SCDbYCikZmSoiIiKqquuQVBIKlWCR744SaWVqCEAlRNgBuST4D3xtN4Q/Rw79cQNpWZHuRTXmzu0YuNSZtxkcA6zMckidLb3hMQxmyaCa2M1pwUGymstwgA1caSUQKysQY3ziw9hphcrSVtz1bsQEoVqabPS7ridtvqIJWSLHQDqFmMpuFTGOO5xqoYlaepGEwQVLdTpmHk9dLDKxqGoEWecSGwDqSHSkoNIFPwu7B0WNVGJVe2WPRKakr2K2ELASWJ6sMAId6Vax5DNlMnSCFXHpDrpPOumRkSkRKtYBmbjxMyqaTU5nmLUVEEpUgEkmwQpJQE77JCQALC1gLX4meGjImckUSEzhmnKbQ2EawlaHlBKQm6321odWshIutSyom5JuST5plnBTtrbg65i9ne4jLUVRlvv+3qkF8+SnFsTCzNefL5popy/Vz89e2o2fOKpJQTV2pedZ8TbkuH7lI9GP8AyjEHYy4Ccqa0hbuEZuo0SdI7qdfa5cfe2+Q+f8TQ28L7jDHcrhp3N22bkWL9c3kmPMCbrl5jqPS24rAcyVyzgE0E+vEG05magccPm7q6nTCuauFMUqTLNumVqarANPWSVE+Da7lC7nYC4WfqCKI5rcKWbGVbTlTflU1XDLYKjNyWpxLaBc6n2SkPMgJ3WspUynpzjGPupJitMNIRkZsFv9cbSW7VbYuyLDArGV1W9Ug956ucdRAK3p0Iw7UlvkiutIqBIBOSp1oBjGGY2XEjjOSM1LBLWImkejc6BYG/Ld63Sd9KuqCdu7qSbRcN/EjXMl60ilVRbk1lzNPXmZe2pTClbGZlrkaVjYuNg6HkgggOBC07fKm2rb2sgXNPMYsKuziszYE2MXWzJjPghtOgvkqcxXzRUQhXyVEVFRKUzknNU+bckZ1CmptpZStKtilQNiD/AP1j1G0baUas0vENJl65RH25mkTbKXWXUG6VtrF0qB94O4NiDcEAggchrjR2cNIQ0hDSETS+sdfQvhS+1G7X4VgWr8cCnztiT8PJ/nmIoFx4fNGG/wATOfkl4lW1o1GcEUE+rt/We3t+4Z78wcL1Sfji9n1I+Mj9M/F3OBj2hVf4Mf1LEV9azFjUCP/Vv40hEgvrEn1ntkvuGZ/MHNNadcDvs+q/xk/pmIy/45/aFSPgw/UvxPtq7EUjiqn1cX6F8Vv2o2l/Cs91nLx1/O2G/wAPOfnl40f4D/mjEn4mT/JMRS1qg8X9hpCGkI6xk+FYbm0QYGZYljGWwQ6+iFk9DVX0Qe4BNudMe1iS2R7jZKJfD5oqovlrlSk/PSC+ZIvOsueba1IP/VJBjr6hSaVV2uTVZWXmmR9F1tDid9jstKh0jgsX2h2mweX7Qwva/bvEJ/xf03F8KxrH5fxD0F/SamsiPfEHkvxeaeWuRN1qsT6OXPTcy835OOrWP+ilERw6dhjDVId59Jp0jKvfWZYabV/1QhJj0TXWx3kNIQ0hDSEYab6cKdHmDEzJtvIsSgywRelSahlAjU2ROclMhFr4WKq0eJPhcDoYdNflURSV0Zzy9zhn6I4ilYmWuZoxslLh7zrI6derjY8Um60j1CQAg0W4heDnD+OJd/FeWbLNNxmApxyWTZuVnVbkgJ2RLzCj0cTpaWo+mSCovJ1f2dbYUs+bVW8ORW2Vc+7FnQpjRx5MWQySi60+04gkBAqfr/V5/Nq2kpNy09LInJNxDsq6kKQtJBSpJ6EEdRGSFWpNToVTfo1ZYdlarLOqbdacSUONrSbKSpJsQQf/AHG0dbet2BJRaVD5eSn/AOlf+H+9P265No4IQfGO21O7+4FBWM0tFnOWUlTGddeYr6jIbWtisuPmTjyttQpLAgjrpqZInwqaqXLmqqvQzuFcNVGbVP1GQkpicUACtxltxRAFhcqSegAAPWwt02j31GzRzMw5SG6Dh3EFZkKM0tSkMy07MMNpKyVK0pacRYKUSogbFRKiNRJj0DGOKrebFpDbrOb2N0wJCrsHJyTII8gB5fJuPz0csWRLp8yZfaNf8XmvPzdWyqwLV2yhyQaYcPRbHoSn3gIsg/cpCh7oknCfFPnvhGYS6xXpqflwRqanyJxCwLd1S3tT6Qbblt5tR3725vsU2F4qcX3feaxu2js4xnPZNxutV9XKy8RkOp9ykkPdLqSABFcKI51Oi2iqJuiJkNa8wMqang1JqUmszVB1W12stq/QOpG1vAOCySdiEkgHSvh/4rcNZxuJw3WmkUrHgQSGdd2JrSLqVKrVZWsC6jLrutKAShbqUrUnK7USxbSGkIml9Y6+hfCl9qN2vwrAtX44FPnbEn4eT/PMRQLjw+aMN/iZz8kvEq2tGozgign1dv6z29v3DPfmDheqT8cXs+pHxkfpn4u5wMe0Kr/Bj+pYivrWYsagR//Wv40hEgvrEn1ntkvuGZ/MHNNadcDvs+q/xk/pmIy/45/aFSPgw/UvxPtq7EUjiqn1cX6F8Vv2o2l/Cs91nLx1/O2G/wAPOfnl40f4D/mjEn4mT/JMRS1qg8X9hpCGkIaQhpCGkIaQhpCGkIaQjU16Q62xCpyfEINbEBjOLSpkWOSTmDBoZFALwwKMJzKIqvzDfhyQB3mBCwygF1irfbtbw/KrTlInO0OaqE26EspNyUu2KndB8E2UglO4KlahpOrVlRx+yuC2cX0dchLhGOnpRbk26ghIclgQ1K81NjrdCm3UoculSWkBCtaeUGtbfthP8af6/wA9WFsYz80Q9sJ/jT/X+eljDRD2wn+NP9f56WMNEf1Qcll1k2JY18x2FPgSWJkKZGdJmRFlRnBejyGHQJDbdZdBCEkXmipr8n2GpllctMJSthxJSpKhcKSRYgjxBGxEcqRmpymTrVRp7q2Z9hxLjbiCUrQtBCkLSobhSVAEEdCIoI4b92x3o2noMvfVpLtgn6HKGmURG28gqhZSS6AJ8LYWMR9iYIJzRsZCBzXp5rQjMLC37IYpfpTd+xKs6yT1LS72HvKFBTZPiUX8Y3m4fs0Dm3lfIYpmdIraNUtOBOwE0yEhagOgDqFNvhI9UOhO9rx7vrxMTVE0vrHX0L4UvtRu1+FYFq/HAp87Yk/Dyf55iKBceHzRhv8AEzn5JeJVtaNRnBFBPq7f1nt7fuGe/MHC9Un44vZ9SPjI/TPxdzgY9oVX+DH9SxFfWsxY1Aj/17+NIRIL6xJ9Z7ZL7hmfzBzTWnXA77Pqv8ZP6ZiMv+Of2hUj4MP1L8T7auxFI4qp9XF+hfFb9qNpfwrPdZy8dfzthv8ADzn55eNH+A/5oxJ+Jk/yTEUtaoPF/YaQhpCGkIaQhpCGkIaQhpCGkInl49chlO8Ue4MGQ91NU8LC6+CHxfIxXsJx+3NtPNU5LNtHj8uX9b/mt48l5dtrLuScbFlOrfUr3kPuIv8A/KhI/wARidxjTcxOcQdaYfVdqWZkWmx9VBkZd4j/AMx1av8AP/XDv2uv+P8A76lO0Vg0Q9rr/j/76Whoh7XX/H/30tDRD2uv+P8A76WhojcH6LjIZFhS7y0ZkRRau0wi1ZTrVQSRdxMniSVFvp+EiboGeZc16kRE5Jy86t8RUqhE5SpwW5rjb6D9zamlDf73Ffd/nbTn/s96g+5ScUUdV+zMTEi8nfbU+iaQvbwNpdFzfew6W32t6rbGi8TS+sdfQvhS+1G7X4VgWr8cCnztiT8PJ/nmIoFx4fNGG/xM5+SXiVbWjUZwRQT6u39Z7e37hnvzBwvVJ+OL2fUj4yP0z8Xc4GPaFV/gx/UsRX1rMWNQI//Qv40hEgvrEn1ntkvuGZ/MHNNadcDvs+q/xk/pmIy/45/aFSPgw/UvxPtq7EUjiqn1cX6F8Vv2o2l/Cs91nLx1/O2G/wAPOfnl40f4D/mjEn4mT/JMRS1qg8X9hpCGkIaQhpCGkIaQhpCOuZRl2M4VVO3eVXUCjrGeaLJnPdCuuIKkjEWOCHJmySFF6WmQNwuXkK67SkUWq16cTIUdhyYm1fRQOg81E2SlPmpRCR4mPL4uxrhTAVHXX8Yz8vT6Sj6bqraja+htAut1wgbNtJWtVtkmNem6/GZc2/iaba+K5Q1xdTR5NYNtndyR+ISKuhr3Y1W2afMZ91/lyVO0Sastg7IyRktE9i1YmJnqGEEhpP8AerZThHiBpR4HWIzMzl4665WubQso2VU6mG6TPvJSZpY3BLDR1Ny6T4LXzHbWIDKhGmbiAlWEbNPeG0ly5rmTRglP2U592TIlWMMQiy+/KfNx599GEZMiIlVev9mrCybEvLMJlpZCG2GxZKUgJSkeASkWAHuAiivb6hWn3Z+pvvTNSccKnHXVqccWpW5UtayVKUTe5UST5x4V7xs/5qf6prlWEfpyFw942f8ANT/VNLCHIXD3jZ/zU/1TSwhyFw942f8ANT/VNLCHIXFBfouMGm0mx19ntg08we4+VOPVQuIQi/j2MMlVRJoCXL/99y9YDzRORA2CoqoqcqdZ+VpqfxUzSmCCmRl7Kt4OOnWof4QG/wDJIjWngZwbNUHLKcxNOpUh2sz5U2DcXl5ZPKQux+s8qYHTdKUm5BFtmOoLi7ETS+sdfQvhS+1G7X4VgWr8cCnztiT8PJ/nmIoFx4fNGG/xM5+SXiVbWjUZwRQT6u39Z7e37hnvzBwvVJ+OL2fUj4yP0z8Xc4GPaFV/gx/UsRX1rMWNQI//0b+NIRIL6xJ9Z7ZL7hmfzBzTWnXA77Pqv8ZP6ZiMv+Of2hUj4MP1L8T7auxFI4qp9XF+hfFb9qNpfwrPdZy8dfzthv8ADzn55eNH+A/5oxJ+Jk/yTEUtaoPF/YaQhpCGkIaQhpCPjJkx4bD0qXIZixY7ZvSJMl0GGGGm06jdeedIW2mwFOakSoiJr9GmnX3EsspUt5RsEpBJJPQADck+Qj8JqalpGWXOTrjbMo0kqWtaghCEgXKlKUQlKQNySQAOsYV7r8ZGOY94mm22js5VcD1NHfSUdDG4Z/EJFFESalXTjZD5KCtR15oQuuJzFZ3wdkdVKlonsUqVJyR3DKbF9Q+11S0D79S+oKEncUMzl45sLYZ5tDyrabrFbF0mbXqEi0dwS2AUuTSgR9Etsm4Ul1wXSddmX5xlme2p3WXXk67nl1I2UpxEjxGzXqViBCZFuHAjdSc+2yAAq+fLnzVbN0SgUbDkmJCiy7cvL+OkbqPmtRupaveok+HSMwsb5gYyzHrCq7jWoTE/UTfSXDZDaSblDLSQlplF99DSEpvuRe5PVNdxHjY6BuVgULcTF5VG+6kOaK+Kp7Lo6yr7FsCFpwgRUVyM8JK26HP4gLmnIkFU+kq0m8cySm1Sb4dAunoR5j/38o1T59W5ttjcDSZtR2VFJkNHKrJEyK+1X3lcLzjAWtHOdabYtax11ohR1pSQTFQLpMSFPpmZl5hS0MOIWttWlYSoEoVa+lQBuk2INjY2N4lAUqZ7IxPOMutys03zGlLQpAcRcpKkFQAWkKBTqTcXBF9o6P77f/N/FNcixj47BD32/wDm/imljDsEZ3cE3CXuVxcZhDlNwrTH9m6ayaHNNwXWFjxnWmVV2Rj2JuyWlZuMllCCNl20darxcF2Ry5tNvRvmDmLS8EyCkakO19xB5TN7kE9FuW3S2Ou9iuxSnxKZ0yUyAr+bFabcW25LYMZdHaZoiwIG5ZlyoWceVaxtqS0CFudUIXW7jON0eG47R4njNdHqMexuqg0tLWRRUWINbWxm4sOM31KRkjbLSIpEqkS81JVVVVaLTs5M1Gbdn51Zcm3nFLWo9VKUbk/5J+4eEbF0ik06hUuXotJaSxS5VlDTTafVQ2hISlI+4Abm5PUkm5jnNcaOxiaX1jr6F8KX2o3a/CsC1fjgU+dsSfh5P88xFAuPD5ow3+JnPyS8Sra0ajOCKCfV2/rPb2/cM9+YOF6pPxxez6kfGR+mfi7nAx7Qqv8ABj+pYivrWYsagR//0r+NIRIL6xJ9Z7ZL7hmfzBzTWnXA77Pqv8ZP6ZiMv+Of2hUj4MP1L8T7auxFI4zw4GvSD7zcCOU3dht9Dx7KcJzN+pcz7b/JIgtxcgSm8W3XzK7IYbaXeP3MCNYyAYdbJ6JzeVX4sjpBBhvN/JLCucVOZZra35arSiViXmWjct69JUlTSjy3EKKUlQISvu9xxFyTMuT2d+K8m6i89REMTNIm1IMzLOpsHNGoJUl1I5jTiQpQSQVI73fbXYAWCcHPpN+GLjKjQ6fE8k9xd1Djic3aXOpEStyRx4RTvri03upV5pDEupRWEayxaTrfjMc+SZg5pcP+YOVji5qpS/bMOBXdnJcKW1bw5yba2Ff6g0E7IcX1jUXKziCy9zVbRK0yY7HiMp70lMFKHb+PJVfQ+n/TOsDdbaOkbD9QfE5Q0hDSENIRjvuvxK7f7XpJrhkplOVtcwTHqeQ2qRHU5/DdWaC9Gq+np+Jvk7JTmK9rpXqSTMHZV4kxaUzRT2SjnfnOA94f0m9lOe5XdR179xY1kzl4q8tcow7S0uir4xRt2KWWn0avKafspuXtbdFnHxdJ5Ok6xrR3P303A3WfIL+z8HSC51xcaqe5Ep2eS82ykN9w3rKQHJF7kg3FEufQgIvSlq8JZfYbwc2FU5rXPkWU+5ZTh87GwCE/ZQBcetqO8ZRZt8QuZWccyUYjm+Rh8Ku3Iy+puWTY7FablT6x11vKWQb8sISdI8d17eIOhpCO9YHtrmm5VmlXiFJJsjAgSXNVOxV1oF592xsXemLGTpRVEFJXXOSoAkXkvn8RYqoWFZTtdbmENJI7qeriz5IQO8r3m2kfSIG8SJl1lVjzNWrCkYJp7s0tJHMd9SXYB+k8+qzbe1yEklxdiG0LVsdj+0/CJh2GeGt83KPmuRt9DoxXWSTGK51B8xZgPIh25ASr8pLHtknSqMASc1q5jLOquV3VJUAKkKWbjUD6dY96x/D/ALWzcbguKBsNSsmeCjA2BeVW8fFqv4oTZQbUk9gYVbohlW8yQb9+YGgjSRLtqFz7hunsrtPvbi5YZuvgGNZzjfIvDQLuvbccq3CAWllUdix2LSgnI0KAkiE9HfEPhQ0TmmorpFfrVBnPlCjzL0vNnqpKj3vGywbpWL72WFC/hFtsR4Owti6lijYkkJacpoFkocQPR7Wu0oWU0oAWCm1JUBsDaNZmU+hG4Ocgszn1N1vfg0U1NRpcWzqhl1jSEqKiA7m2FZjcKjfLy6pZL5+fPy5SrJ5+Y5lmuW8iQmF/WcaWFf8A2nW0/wD0xXyo8H2Us9MF6WXVpNs/8tmYbUgf5mGH1/8AVZjvG1/oeOC3bexj2tlj+b7rS4h92MG6GWBYVwOo4RicilxOpw6kswEC6O1LjyGSFEUgUvi1wKtndjyqNFlp1iTQob8hvSr/AApxTi0+d0qB99to7fDvCnlBQH0zL8tNVJ1JuO1vak397bKGG1+VlpUnzBO8bNqWkpsbqa6gx2oq6CiqIjMCppaWBEqqmrgxwQI8KuroLTEOFEYBEQG2gEBTyRE1E78w/NPKmZpa3JhZJUpRKlKJ6lSjcknxJN4sRJycpT5VuRkGm2JJpIShttKUIQkdEpQkBKUjwAAAjlNflHJjVrxpelp4aOEMbXFIlo3vFvNCV6Ku2mEWUY2KGwbQh7WeZYLcyqxZWXR6XYgjLtAVRVYiAXcSxGVHDVj/ADOLdScbNLwqux7VMIN3Enxl2e6t646LJQyd/SEixrrmxxL5f5YBymtuCqYrRcdkl1izah4TD1lIZseqLLeG3ogDqEifGRx278cb2WV17u3aVcTHcZftCwXAcar26/GsQYtlijN8M44r9tb2MxqCyj8ubIfcNW+TaNN9LY6a5WZO4NyjprknhltxU9MJR2iZdUVOvFF9NwLIQlJUrShtKQL97Uq6jmJmpnJjPN6pNzmJnG0yEupfZ5ZpIS0wF21WJuta1BKdS3FKJt3dKbJGGWpViKIoJ9Xb+s9vb9wz35g4Xqk/HF7PqR8ZH6Z+LucDHtCq/wAGP6liK+tZixqBH//Tv40hGin0vnoz93eMe4xHeXZS/oLDL9v8GLD3tr70hpH8ngNXdxfBNx3K5Mpahq6V+3VlIc8IcUwDr8YJIjZXC4Ys/sM5Wys1hXFjLyKZOznPE236QNKLaG9LrIGst2Rq1tlawTblEd4U64oOH/E+ak1K4qwk+wuqSMnyDKOejLqeYtzU08ToDl16dDgQggX5oPdMgee7e51tZlVrg+5GI5Fg2X0j3YtccyipmU1tDNfNszhzmmXTjSATrZeFCaebVDbIhVFXTyjVuj4ipzdXoM0xOUt4XQ6ytLiFefeSSLjopJsUnYgEEDL2tUOs4cqTlHr8q/J1Rk2W08hTa0+R0qANj1SoXSobpJBBjp2u0jqo+8WVKgyo06DJfhzYb7MqJLivOR5UWVHcF6PJjSGSB1h9h0EIDFUISRFRUVNfDjbbzamXkpW0tJCkkAggixBB2II2IOxEfbTrjLiXmVKQ6hQUlSSQQQbggjcEHcEbgxvO4LvTj747ILVYRxFx7DfrbNhWIjeRPy2m928ZhAPR1x7yYbcTN2Wk8+zamEw18knAKIC1AzW4Q8IYu5lXwKpFGr5ueUAexOq97abqlyfrMgoH8kk3i4eU/GBi/CPKpGO0rrWHxZIdJAnWk+5xVkzAH1XiFn+cALRVLw58VuwnFbiQ5hsfuFT5dGZbaW5o+ta/LsYfcQf6JkuLze1b1J9aqIOm2sZ9RVWXXQ+Jc58dZcYzy4qfyXi6RdlnCToc9Zl0DxaeTdCx4kA6k9FpSdo0dwJmTgvMmmfKmEJ5qabAGtu+l5on6LrKrLQfAEjSrqhShvHou4W6uD7X1/j8uumYjroKcKpj9Mq6svMhTwNaBo8bfWKirp9DAL5EY667DWD8QYtmez0VhS0A2U4rutI/vWdgbb6RdZHRJjqszM4cvspKZ8o41n22Hlpu1Los5NP9R6JgHUU3Fi4rS0k7LcTtGtrdjiyznO1k1OLE9hOMuIbRBBkL7fsWl5ovjrZroKI04PzsxuhOSqJuOivlaXB2TWH8PaZyrhM/VhvdY9Cg/YbN9RH1nL+BSlBjK7OXjNzBzDLtGweV0DCarpIaX++PJ6elmE2LaVDq0xo6qStx1J2xQVVVVVV5qvmqr86r/eupiimxJJuesNI/kclUU1tf2MWoo62bbWk1ztRYFfGdlynz5c1RtlkTNUAUUiXlyEUVVVERVTizs9J02VXO1B1tmUbF1LWoJSB7ybD3DxJ2G8drRKFWcS1RmiYflX52rvq0tssoU44s9TZKQTYC5J6JAJJABIz02n4L3XPDXW7EtWQ+B1vEKiUhOkijz7d1bsKotKheRNRCJVTz76LzHVdsZZ6oTqkMGo1K3BmXE7fe02evuU4B/pnrGjOTPAg65yq9nK9oRsoU2Wcuo7X0zUyg2TvsW5ZSttxMA3TGfdFQUmMVkalx6rg01VEHpjwa+O3Hjt8/6xqAInW64vmZlzMy8yVV89VxqFSn6tNrnqk84/OLPeWslRPu36AeAFgBsABGkGHsN0DCdJaoWGZOXkaOwLIaZQEIHmbDqpXVSlXUo7qJJJjl9cKO7hpCGkIaQjFfig40OHbhAxn3h3sz2FTz5Udx6gwioQLrP8pIOtBbocYjvBKKObodtZkootcyaojshvmnORcvcqccZn1DsOEpJbrKSA5ML9HLM+9x0i17b6EBbqh6qFWiOMw818DZXU/t2Lp1DTykkty6PSTL3+myDe19tayhpJ9ZaYlB40/TT8RPEitvhW0bkzh/2gl+IhOQ8csjXcnK68z6P/yfNYvh3qiLLYD46+oSM2gOuMSJE1tUXWkWVHChgfAfKq2JgitYnTZQU6j91ZV/SYNwspPRx7UbhK0IaVGbGbPFljnHvNpOGCuiYXVdJS0v96eT/VfFigKHVtjQLFSFrdTGmMiIiUiVSIlUiIlVSIlXmqqq+aqq6tUAALDpFUiSTc9Y/Nf2P5HLUNBe5VdVmOYxS22R5DdzGK6moaGtmXF1b2Eo0bjQKyrr2ZE6fMkOKgg00BmZLyRFXXGnZ2Tp0o5P1B5piRZQVLccUlDaEjcqWtRCUpA6kkARyZKSnalNtyFOZdmJ55YS222lS3FqOwShCQVKUT0ABJiuH0Lno8d/+FvI833y3yg1GFubgbfNYfRbcOTEscygsv5BTZCdzk/ge7UUfU1VA21CSQ/MQnS8QEY2+g8zuK3PDBWYkjJ4Qwgt2bTJTpfcmtOlhRDa29DWqy3N1klelKLAaC4FXTpvwn5G41y6npzF+MENSip6RDDcrq1PpBcQ7rd03Q3sgAN6lL3OsNlNjQZqk8Xcj//Uv40hDSEY08SvCHw/cW2Kpi2+G39Zk3hGX26HJ4//AJXmmKuP/ET+N5REQbKAKuoJnHInIUggHvsuinLXvcBZm41y0qPyjhGdcl9RBcaPfYeA8HWld1W2wULLSCdC0nePAY+yxwTmZTfk3F8k3MaQQ26O4+yT4tPJ76d9yndCiBrQobRKTxp+hI3+4fUts32LKw4gtqYynJciVFdy3YxiEpGS+18Rgi4OVRIYKAlMp0N4/jdcgxmQUk0fyo4tsF425dIxhoomI1bBS1fubqvsPKtyVK3IQ/ZI2Sl5xRAObebPCNjXBHNq+Dtdbw2ncpQn98aT9tlN+clOwK2LqO6lMtpBI0lGBtGbbgE242RA42YqBgYL0mBgSIQkJIqKipzRdW1BCgFJIKSNjFR1JKSUqBCgbEHwjn8WxLJ84u4mN4hQ2mSXs5VSLV08N6bLcEeXceJtkS7MZgV6nHTUW2x+IiREVU407PSdOl1Tc86hqWT1UogD7t+pPgBufCPzcdbZQXHVBKB4mNzPB/wUZvs1lmP7v5ZuFkOH5xTOBKqse24yGZTvxBVWzdg5NlNU+05Zw5SD0SYERfCuiPI33gIm9V8zCxzR8U0x7DbUkxN0l0WWqZbCwfJTbagdKh1S4rvJO4SkgGOFTsfVzDFTRVsIzT8lVGj3X21FCx5gW6pP0krulQ2UkiNoVtb2t9YSba7sZttZzHO7Kn2El6XLfP5kVx98zcLpFERE58hREROSIiah+TkpOnSyJOQabZlECyUISEpA9wFh9/mY8tWa3WMRVN2s1+afnKs+rU488tTjiz9paySbDYC9gAALAADjtcmOrj9RFJUEUUiJUQRROaqq+SIiJ5qqroSALnpH0lKlKCUglRNgB1JjLHafhLzbOvDW+V97CcZc6HR8ZHVchsmCHrRYNY70pDadHyR6UocupCFp1PLUN4yzloGHtclR9M/VRcd0+hQenfcHrEfVbv0sVoMXMyZ4MMfZhcqtYy10DCirKHMR++voIv6JhVuUlQ25j+m1wtDTqdo2R7fbWYPthXez8RpWITjjYhNtX+Um5s1FULqn2RijzgdadSND0MAq/AA/NqreJcX1/Fk12mtPqcSDdLY7rSP7EDYG22o3WR6yjGp2WmUGX+UtL+TcFSDbDikgOzC7OTT9t7vPkalC+4bTpaQfUbSNo9D15mJNhpCGkIaQjoe5W6O3WzmIWefbqZrjmA4bTiiz8hyi0jVVe26YmTENg5Bic2ylq2osRWBckyD+BoCJURe5oOHq7impt0bDso/O1R31WmkFaiPFRt6qU3uparJSN1EDeOmr+IqFhaluVrEc2xJUpod515YQkHwSCfWUq1koTdSjskE7RM7xp+nytbNbfAeC6lKmr18RBf3xzWqBy4lD1dCS8CweyaONUtEgKTUy7bffNtzktfGcBDW/eVHBjLscqtZrOh17ZQp7C+4PszEwg3WfNDBSkEfxnEkiM/8ANnjSmH+bRcp2eUzuk1B9HfP2paXWLIHkuYClEH+AhQBicLM82zDcbJrfM8+yi+zLLb6Uc25yPJbWZc3NlJP53ZdhPefku9I8hFFLpAUQRRBRES9tKpFLoVPapVFl2ZWmMp0oaaQlCEjyCUgAe/xJ3O8UNq1XqteqDtWrUw9N1N5Wpbrq1OLUfMqUST7vADYWEdX12MddDSEbbeC70PHEtxVJUZhlsN3YrZucDMxvM80qpBZNklc6KONO4RgrjsCzs2JbZgbU6c5X1zjB91h6So9oq0ZrcUWAcuebS6YoVjFKCUlhhY5TShsRMTACkJKTcFtsOOhQ0rS3fULNZT8LWP8AMflVSppNGwqsBQffQea6k7gy8uSlagoWIccLbRSdSFOW0msjhN4BuGng0pxj7RYQ07l8mEkO83RytY97uLfNkgeIadvSix2aWtkk2CuQatiDBMgEjZJxOtc2cyc58fZqTWvE82RTEr1NyjN25Vs+BDdyXFC5s46pxwAkBQBtGlmWmS+AMqpTl4YkwampGlybes5NOeYLlgG0mwu2yltskAlJULxmdqKolaGkI//Vv40hDSENIQ0hGtfjC9Fbws8YMp/Kr/H5O2+6b7oPSdy9ugg1NteqjiE8GY1LsV6kylx8PhWW+yNkCCAjJRse2U95W8RmYeV6E06UeE/htIsJSZKlobH9Bd+Yzb6iSWjcktlRuK/Zs8OGAM00O1Bxr5NxYpJtOS6QCpXgZlruomBe1ySl6wCUvJG0YUf+CGPwiVR1WMYRBi4yZNtv5vUtu2Tty4pdLR5DcSAK0ZlmSfCzIUGAIlFhOnVkaVnHI5nuh12bUKpYnszlkFHny0juKSPrIuq267GMmM5uH3NHKaZVN4klzN4a1WRPSwUuW3NkhwWCpdZ2Gl1KQpWyFuWvHDa9FFfoaQjHPfDik2m2GiuM5Rde1MqNjvQcJoFZnZDI60TsuTW+6EakhOKvPvSza6wEu0LpD0L6vDuDa3iVYVJt6JK9i6u4QPO3is+5INjbUUg3jnylOmZw3bFm/rHp/wDv/H+0e4eju9JZwXZlaQce3bpv0Mbxyp5sUuR5/bxbzb2er0ggr2aTK1gVMDELRWFFDWyjRxU1UW5p9aNDEef2TOcEtLuTeGnvlLB6UXcZlUKbmU2HeLrWpa30X6cpStt1Mp06joZwmVPh4w0+ynE0t2fMnX3J2fKXJbUTZPZVaUtya7banU8zcgTKgoIFF7D7EphmTGeakRpDTb8eQw4DzD7DwI408y62pNutOtkhCQqqEi801QRaFtrLbgKXEkggixBHUEeBHiI1MQtDiA42QptQBBBuCD0II6g+Bj66+Y+oaQhpCPjJkx4cd+ZMfZixIrLsmVKkugxHjR2AJ159950hbZZZbFSIiVBEUVVXlr7bbW6tLTSSpxRAAAuSTsAANySdgB1j4ccQ0hTrqgltIJJJsABuSSdgANyT0jRhxp+nG2P2PW3wbh0j1u/W5sbxEJzJI8w02ixqc2Xb63r2C4EnOnWi5qjVS4EJxP8A+8SRQW32VHCHi/F/KrGOVOUbD6rKDRT++upO+zahaXB+s8CsfySN4p7mzxf4PwfzaPgVLdaxAm6S6FfuTShtu4k3mCPqskIP84HaJVuInip354q8vPM98dw7nMZrTsgqamNwYGJ4tGfLmsHF8XgozT00dGxEDNtrxMjoQpDrrnM10awNlzg3LimClYQkWpVoga121PPEfSedVdaze5AJ0puQhKU2Azgx1mPjPMiqGq4wnnZp0E8tu+llkH6LLKbIbFrAkDUqwK1KVcnHrXt48PDSEZm8JvAPxLcZdyMfaHCHWsRjTUh3m6OVrIotuqFwejvtPXpRZDtzYxhcBTg1bE6cAmJkyLa9aRVmTnPgHKuV14nmwampGpuUZs5NODwIbuA2k2NnHVNtkggKJFolfLTJbH+a01owxJkUtK9Lk29duVb8wXLEuLFxdtlLjgBBKQk3isjgu9Dxw08Kq1GY5bDa323kgmzMbzPNKqOOM43YtkjjTuEYK47Pra2REcADanTnLCxbfDusOxkLtDmzmtxQ4+zG5tLpijR8LLBSWGFnmupOxExMAJWsKFwW2w20UnStK7ajpXlPwt4Ay35VUqaBWcVIsoPvoHKaUNwZeXJUhBSbEOOFx0KGpCm76Rtu1WiLNQ0hDSENIR//1r+NIQ0hDSENIQ0hHyfYZksux5LLUiO+2bTzD7YOsvNOCom260aEDjZiqoqKioqa+23HGlh1pRS4k3BBsQR0II3BHmI/J9hiaYXLTSEOSziSlSFAKSpJFilSTcEEbEEEERhfuzwdYxkvi7rbl5nE7shN0qJwVXGJ7qdRdMcAEpFE66pcvku5GRBRBZD4iWdMG531alaJHE6VTsgLDmj+Oge8nZ0D7Wle5JWrYRRLObgdwjizm13LBbdEr5BUZVQJkHVdbJCQVyhJ/lhbIAASwjdUS3ce3EHxQbJ5nZ7QzNs8o2IZPxAQstu2GJFxmNa0fZO1wzIq16fjAVLhKo9+uky5LRpyJ5h1DbHRHKej4CxlSkYjp8/L1UbamkEgMqIvofaUEuhf2XEoSRuEqSQo5zYnylxTlxVfkrHMi9LVDcpChdlxINtTTqboeT70KIB7qgCCBpqly5c+VInTpMibNmPuyZcyW85JlSpL5q49IkSHiN1995wlIjJVIiXmq89WIQhDSA22AltIsABYADoABsAPKOtACRZOwEfz6+o/sbI+DT0pPE3wcP1tDTXq7l7QxnACTtLnU6XKqIkPn8oGG3fKRa4TJQVJWxjd2v7hKbsR5dQNmpw75f5pIcnZpn5PxOobTkukBaleHPb2Q+PMqs5YWS6kRPeVPEXmDlWtuSlXvlDC6TvJTCiUJT/Qc3XLnyCbt33U0qK1uDn0mXDFxmRIdTh+Te5G6hsCU/aLOn4lZlJPAyjkpzFpSOrV5tXNkLiicFwpYMh3JMWN1IK5qZpZA5g5VuLmapL9rw5q7s7LgrZtewDwtrYUdtnAEFR0tuOWJjTHKziBy9zWaRLUqY7JiPT3pKYKUPXtclk30PoG+7ZKwkanG27gRsK1CMThGuvjI9J3wxcGkadS5Rkfv/uw1HIoW0eCSYljkTMghHse9tj3CqcHhkroGXjj8abCq5HiyOXSs5ZWcPuYOajiJqnMdiw2T3p2YCktEePJTbXMK2IHLHLCu6txu94gvNTiEy9yqbXKVF/tuJQnuyUuUqdB8Ocr1JdO4J5h5hT3m23LWiSfjL9J7xN8ZkifSZNkCbfbSOySODtFgsmVBoHo4Gqxly+1Ugts4nCAgR+MIYCPh3Y8OMq8k0syr4fMv8q0Im5BjtuJgnvTswApwHx5CPUl09QNALmk6Vur6xmbmrxDZg5rLXJz7/YcMlXdkpclLZHhz1+vMK6E6yG9Q1IaR0jXRqdIgmGkI9b2W2H3g4iM0ibfbK7f5FuFlcpBdOBRxOqLWQycFlbO/uJJx6bHKdt0xApk+RHjCZCKn1EKL5nFeMsL4GpSq3iydYkacnYKcVutVr6G0C63V23CG0qUQCbWBI9PhPBmKcdVZNEwlIvz1SVuUtp2Qm9tbizZDSL7FbikoBIF7kA1A8F3oF9vcDSpzzi9uIm6OWgjE2PtPjUmbF24pJCEroNZLdIMG6ziWyqN9bDSQawTRxpwZ7JCa57ZrcZNcrPMo2WLSqdTDdJnHQkzTg6XaR3m5dJ3so8x0jSoFlQIjQ7KfgyodF5VZzPdTUamLKEm0VCVbPWzq+65MKG10jltA6kqDySDFCFDQUOK0tZjeL0lRjeO0kJiupqGhrYdPS1FfFBG40Csq69mPBgQo7aIINNNgACnJERNUlnZ2cqM25P1B11+eeWVLccUpbi1HcqWtRKlKJ6kkkxd6SkpOmyjchT2WmJFlAShttKUNoSNglCEgJSkDoAABHL640cmGkIaQhpCGkI//9e/jSENIQ0hDSENIQ0hDSEea7sbO7Xb64ZYbe7v4Lju4OHWai5IpMjghLZaktiYsWFdJFW51RaxUcLsy4jrEplSVQcFV132G8U4iwfVUVvDE4/JVRvYONK0kg9UqG6VoNhqQsKQrxSY6DEuFsO4xpS6HiiTYnqU5uW3U6gCOiknZSFi/dWgpWnwUImI40/QJ5divtbP+Di5kZxj7YPzpWzWWzo7OaVrYdbzjWG5RIWNW5UwALybhzvCTxAEEX5rxoKaC5UcZdMqPKouaTSZSdNkieZSSwo9AX2RdTJ81t62yTcoaSLxntmzwYVOnc2tZVuqnJEAqMi8oB9A6kMPGyHh5Ic0OACwW6ogRO1k2L5Lhd/a4rmGP3WK5PRSzgXWO5HVzaW8qJzSIrkSyqrFiNOhSQQkVQcAS5Ki8uSpq8dPqEhVpJupUt9qZp7ydTbrS0uNrSeikrSSlQ94Jii9Qp1QpM65Taqw9LVFlWlxp1Cm3EKHVK0KAUk+4gGOC1zI4cfeLKlQZUadBkvw5sN9mVElxXnI8qLKjuC9HkxpDJA6w+w6CEBiqEJIioqKmvhxtt5tTLyUraWkhSSAQQRYgg7EEbEHYiPtp1xlxLzKlIdQoKSpJIIINwQRuCDuCNwY2Nn6Wnjyc2Y/Qoe99uVb1Kwu4Cxmv0ulSkyTa0B7idXtlyKrhK540udxz+DxvZRGkgocNOTYxV+1gpDXPtfs1z2LmXvzOzepe23L/gePK1d6J4PEznMcKfskau7yL27TYdt5drcvtPr2vvzP4/hzdPdjXJKlSp0qTOnSX5k2Y+9Kly5TzkiVKlSHCekSZMh4jdfffdNSMyVSIlVVVVXU6tttstpZZSlDSEgJSAAAALAADYADYAbARA7rrjzinnlKW6tRUpSiSSSbkkncknck7kx8NfcfEcrR0V5k9xW49jVNa5Df3MtmvqKOjrpltcWs+QXRHhVtZAZkTZ0t815A20BmS+SIuuNOTknT5Vyen3W2JJpJUtxxSUIQkdVKWohKUjxJIAjkyclOVGabkae04/OuqCUNtpUta1HolCEgqUo+AAJMUFcF/oGdx9wUqs84ubeZtTiDvh5sbazHX4Urcy6jkLb7YZFZqE6mwWK+BihMoM2z5dxt1qE6gnqk+a3GTQqJzKNlm0ipVMXSZt0KEq2enokd1cwR4K9G16qkqdSSIu5lPwZV2t8us5nOrptMNlCTaKTNODYjmr7zcuD4p9I76yVJZUAYqH2V2F2e4dcKibe7Kbf49t9ikUkecg0kUvF2kzoRsrO/uZbkm6yO3NsUApc6RIkK2Ih19AiiZ6YsxlijHNWVW8WTr89UlCwU4dkJ+o2gWbaRffQ2lKbkm1ySdEMJYMwtgWkpoeEpJiRpqd9LY3Wr67i1EuOrttrcUpVgBewAHruvMx6eGkIaQhpCGkIaQhpCP//Qv40hDSENIQ0hDSENIQ0hDSENIRh/xW8CvDdxk0KV28mDsvZJDiLEx/cnGjZo9xcabQzcBquyEI0gZ9e2bpkkCxZm1/W4R9jucjGT8uM4MeZWTnPwrOESKlanJV27ks6el1NXGlWw9I0ptywA16bgxdmTk7gLNWS7PiqTBn0p0tzTVm5podbJdsdSdz6N1LjdyTo1WIk140vQ5cSPC17XzLCIz2+2zkJJM1zKcRrHhy3GK1onHFLM8KaclzmGYkcVJ2fAKZCEBVx4o3NATSfKjikwHmJyqVV1Cj4pXZIZeWOS6o2HoHzpSSTsG3Ahwk6Uhzqc082OFfHuXXNqtHSazhVF1F5lB5zSRc+nYGpQCRuXGytsAalFvoNQ2rORWCGkIaQjbRwXeh94luK32TmGUQXdjdmpnalDm2a1cj3iyOAXbNDwfB3HINpbNSWnRNmdMOBWONqpsvvkPaKtWa3FBgHLjm0unLFYxUi45DCxymlb/wDeJgakIIIsptAcdBsFIQDqFmMp+FzH+ZPKqlRQaPhVdjz30Hmup2/7vLkpWsEG6XFltojdK1kaTWRwlcAXDTwZ07bO02FNSszfhJEvN1Ms8Nebh3gki+IbW5KMwxQ1sjmiHBq2YUNzoAnG3HB7i5s5l50Y+zUmivEs2U0oL1NyjN25ZvyOi5Lih4OPKcWLkJUlJsNLMs8lcAZUyoRhmUCqqpGlyces5MueY5lgG0nxbZS2g2BUlShc5p6iiJYhpCGkIaQhpCGkIaQhpCGkI//Rv40hDSENIQ0hDSENIQ0hDSENIQ0hDSEak+NP0PfDXxWra5jikRrYveWZ3JJ5phdTGXGsknESuG5nGDtOwK60kSTM1cnwnIFibpo4+9IEEaKy2VHFBj3Lfl0uoqNYwqmw5D6zzWk9LS8wQpSANrNrDjQAshKCdQrNmzwuYBzJ5lUpqRR8VKueewgcp1XnMS4KUrJ3u42W3STdalgaTOh/9FLjx/TN+iT3BofZH9r/AEye8cf9EvsPxng/a3tfse8Piuv4vZXsz2z0fKeE7Xymrz/8WOTn7K/tL217tXq9h5R7ZzNOrRovy7f1ubyL93mau7FFP+ErOX9q/wBmexM9l9bt3NHY+Xq069dubfx5PK59u9y9Peiibgu9Dnw18LC1OY5pEZ333jhqxMbyzM6qOmKYzYNj1IeF4M65NrYr0Z3pJqdYHPntvNo7HOKqq2lHM1uKPHuYvMpdKUaNhZd08lhZ5zqT/PmBpUQRsW2w22UkpWlzqb0ZT8LOAcueVVaqkVnFSLKDz6ByWlD+RLkqSkg7hxwuOBQCkKb6DbrqssWchpCGkIaQhpCGkIaQhpCGkIaQhpCP/9K/jSENIQ0hDSENIQ0hDSENIQ0hDSENIQ0hDSENIQ0hDSENIQ0hDSENIQ0hDSENIQ0hDSEf/9O/jSENIQ0hDSENIQ0hDSENIQ0hDSENIQ0hDSENIQ0hDSENIQ0hDSENIQ0hDSENIQ0hDSEf/9k=;" parent="1" vertex="1">
          <mxGeometry x="539" y="360" width="53.1" height="60" as="geometry" />
        </mxCell>
        <mxCell id="GfWKtc_v5-ul72PLcQqI-69" value="" style="edgeStyle=orthogonalEdgeStyle;rounded=0;orthogonalLoop=1;jettySize=auto;html=1;startArrow=none;startFill=0;endArrow=classic;endFill=1;fontSize=14;" parent="1" source="GfWKtc_v5-ul72PLcQqI-19" target="GfWKtc_v5-ul72PLcQqI-67" edge="1">
          <mxGeometry relative="1" as="geometry" />
        </mxCell>
        <mxCell id="GfWKtc_v5-ul72PLcQqI-19" value="" style="aspect=fixed;html=1;points=[];align=center;image;fontSize=12;image=img/lib/mscae/Machine_Learning_Service_Workspaces.svg;" parent="1" vertex="1">
          <mxGeometry x="542" y="460" width="46" height="50" as="geometry" />
        </mxCell>
        <mxCell id="GfWKtc_v5-ul72PLcQqI-20" value="" style="aspect=fixed;html=1;points=[];align=center;image;fontSize=12;image=img/lib/mscae/SQL_Database_generic.svg;" parent="1" vertex="1">
          <mxGeometry x="639" y="365" width="38" height="50" as="geometry" />
        </mxCell>
        <mxCell id="GfWKtc_v5-ul72PLcQqI-33" style="edgeStyle=orthogonalEdgeStyle;rounded=0;orthogonalLoop=1;jettySize=auto;html=1;startArrow=none;startFill=0;endArrow=classic;endFill=1;fontSize=19;" parent="1" source="GfWKtc_v5-ul72PLcQqI-21" edge="1">
          <mxGeometry relative="1" as="geometry">
            <mxPoint x="680" y="390" as="targetPoint" />
          </mxGeometry>
        </mxCell>
        <mxCell id="GfWKtc_v5-ul72PLcQqI-21" value="" style="shape=image;html=1;verticalAlign=top;verticalLabelPosition=bottom;labelBackgroundColor=#ffffff;imageAspect=0;aspect=fixed;image=https://cdn1.iconfinder.com/data/icons/microsoft-product-2/512/17_Microsoft_Power_Bl-128.png" parent="1" vertex="1">
          <mxGeometry x="730" y="360" width="60" height="60" as="geometry" />
        </mxCell>
        <mxCell id="GfWKtc_v5-ul72PLcQqI-34" style="edgeStyle=orthogonalEdgeStyle;rounded=0;orthogonalLoop=1;jettySize=auto;html=1;entryX=-0.026;entryY=0.152;entryDx=0;entryDy=0;entryPerimeter=0;startArrow=none;startFill=0;endArrow=classic;endFill=1;fontSize=19;" parent="1" source="GfWKtc_v5-ul72PLcQqI-22" target="GfWKtc_v5-ul72PLcQqI-12" edge="1">
          <mxGeometry relative="1" as="geometry" />
        </mxCell>
        <mxCell id="GfWKtc_v5-ul72PLcQqI-40" style="edgeStyle=orthogonalEdgeStyle;rounded=0;orthogonalLoop=1;jettySize=auto;html=1;entryX=1.02;entryY=0.24;entryDx=0;entryDy=0;entryPerimeter=0;startArrow=none;startFill=0;endArrow=classic;endFill=1;fontSize=19;" parent="1" source="GfWKtc_v5-ul72PLcQqI-22" target="GfWKtc_v5-ul72PLcQqI-2" edge="1">
          <mxGeometry relative="1" as="geometry" />
        </mxCell>
        <mxCell id="GfWKtc_v5-ul72PLcQqI-22" value="" style="shape=image;verticalLabelPosition=bottom;labelBackgroundColor=#ffffff;verticalAlign=top;aspect=fixed;imageAspect=0;image=data:image/jpeg,/9j/4AAQSkZJRgABAQEAeAB4AAD/4RDaRXhpZgAATU0AKgAAAAgABAE7AAIAAAAFAAAISodpAAQAAAABAAAIUJydAAEAAAAKAAAQyOocAAcAAAgMAAAAPgAAAAAc6gAAAAgAAAAAAAAAAAAAAAAAAAAAAAAAAAAAAAAAAAAAAAAAAAAAAAAAAAAAAAAAAAAAAAAAAAAAAAAAAAAAAAAAAAAAAAAAAAAAAAAAAAAAAAAAAAAAAAAAAAAAAAAAAAAAAAAAAAAAAAAAAAAAAAAAAAAAAAAAAAAAAAAAAAAAAAAAAAAAAAAAAAAAAAAAAAAAAAAAAAAAAAAAAAAAAAAAAAAAAAAAAAAAAAAAAAAAAAAAAAAAAAAAAAAAAAAAAAAAAAAAAAAAAAAAAAAAAAAAAAAAAAAAAAAAAAAAAAAAAAAAAAAAAAAAAAAAAAAAAAAAAAAAAAAAAAAAAAAAAAAAAAAAAAAAAAAAAAAAAAAAAAAAAAAAAAAAAAAAAAAAAAAAAAAAAAAAAAAAAAAAAAAAAAAAAAAAAAAAAAAAAAAAAAAAAAAAAAAAAAAAAAAAAAAAAAAAAAAAAAAAAAAAAAAAAAAAAAAAAAAAAAAAAAAAAAAAAAAAAAAAAAAAAAAAAAAAAAAAAAAAAAAAAAAAAAAAAAAAAAAAAAAAAAAAAAAAAAAAAAAAAAAAAAAAAAAAAAAAAAAAAAAAAAAAAAAAAAAAAAAAAAAAAAAAAAAAAAAAAAAAAAAAAAAAAAAAAAAAAAAAAAAAAAAAAAAAAAAAAAAAAAAAAAAAAAAAAAAAAAAAAAAAAAAAAAAAAAAAAAAAAAAAAAAAAAAAAAAAAAAAAAAAAAAAAAAAAAAAAAAAAAAAAAAAAAAAAAAAAAAAAAAAAAAAAAAAAAAAAAAAAAAAAAAAAAAAAAAAAAAAAAAAAAAAAAAAAAAAAAAAAAAAAAAAAAAAAAAAAAAAAAAAAAAAAAAAAAAAAAAAAAAAAAAAAAAAAAAAAAAAAAAAAAAAAAAAAAAAAAAAAAAAAAAAAAAAAAAAAAAAAAAAAAAAAAAAAAAAAAAAAAAAAAAAAAAAAAAAAAAAAAAAAAAAAAAAAAAAAAAAAAAAAAAAAAAAAAAAAAAAAAAAAAAAAAAAAAAAAAAAAAAAAAAAAAAAAAAAAAAAAAAAAAAAAAAAAAAAAAAAAAAAAAAAAAAAAAAAAAAAAAAAAAAAAAAAAAAAAAAAAAAAAAAAAAAAAAAAAAAAAAAAAAAAAAAAAAAAAAAAAAAAAAAAAAAAAAAAAAAAAAAAAAAAAAAAAAAAAAAAAAAAAAAAAAAAAAAAAAAAAAAAAAAAAAAAAAAAAAAAAAAAAAAAAAAAAAAAAAAAAAAAAAAAAAAAAAAAAAAAAAAAAAAAAAAAAAAAAAAAAAAAAAAAAAAAAAAAAAAAAAAAAAAAAAAAAAAAAAAAAAAAAAAAAAAAAAAAAAAAAAAAAAAAAAAAAAAAAAAAAAAAAAAAAAAAAAAAAAAAAAAAAAAAAAAAAAAAAAAAAAAAAAAAAAAAAAAAAAAAAAAAAAAAAAAAAAAAAAAAAAAAAAAAAAAAAAAAAAAAAAAAAAAAAAAAAAAAAAAAAAAAAAAAAAAAAAAAAAAAAAAAAAAAAAAAAAAAAAAAAAAAAAAAAAAAAAAAAAAAAAAAAAAAAAAAAAAAAAAAAAAAAAAAAAAAAAAAAAAAAAAAAAAAAAAAAAAAAAAAAAAAAAAAAAAAAAAAAAAAAAAAAAAAAAAAAAAAAAAAAAAAAAAAAAAAAAAAAAAAAAAAAAAAAAAAAAAAAAAAAAAAAAAAAAAAAAAAAAAAAAAAAAAAAAAAAAAAAAAAAAAAAAAAAAAAAAAAAAAAAAAAAAAAAAAAAAAAAAAAAAAAAAAAAAAAAAAAAAAAAAAAAAAAAAAAAAAAAAAAAAAAAAAAAAAAAAAAAAAAAAAAAAAAAAAAAAAAAAAAAAAAAAAAAAAAAAAAAAAAAAAAAAAAAAAAAAAAAAAAAAAAAAAAAAAAAAAAAAAAAAAAAAAAAAAAAAAAAAAAAAAAAAAAAAAAAAAAAAAAAAAAAAAAAAAAAAAAAAAAAAAAAAAAAAAAAAAAAAAAAAAAAAAAAAAAAAAAAAAAAAAAAAAAAAAAAAAAAAAAAAAAAAAAAAAAAAAAAAAAAAAAAAAAAAAAAAAAAAAAAAAAAAAAAAAAAAAAAAAAAAAAAAAAAAAAAAAAAAAAAAAAAAAAAAAAAAAAAAAAAAAAAAAAAAAAAAAAAAAAAAAAAAAAAAAAAAAAAAAAAAAAAAAAAAAAAAAAAAAAAAAAAAAAAAAAAAAAAAAAAAAAAAAAAAAAAAAAAAAAAAAAAAAAAAAAAAAAAAAAAAAAAAAAAAAAAAAAAAAAAAAAAAAAAAAAAAAAAAAAAAAAAAAAAAAAAAAAAAAAAAAAAAAAAAAAAAAAAAAAAAAAAAAAAAAAAAAAAAAAAAAAAAAAAAAAAAAAAAAAAAAAAAAAAAAAAAAAAAAAAAAAAAAAAAAAAAAAAAAAAAAAAAAAAAAAAAAAAAAAAAAAAAAAAAAAAAAAAAAAAAAAAAAAAAAAAAAAAAAAAAAAAAAAAAAAAAAAAAAAAAAAAAAAAAAAAAAAAAAAAAAAAAAAAAAAAAAAAAAAAAAAAAAAAAAAAAAAAAAAAAAAAAAAAAAAAAAAAAAAAAAAAAAAAAAAAAAAAAAAAAAAAAAAAAAAAAAAAAAAAAAAAAAAAAAAAAAAAAAAAAAAAAAAAAAAAAAAAAAAAAAAAAAAAAAAAAAAAAAAAAAAAAAAAAAAAAAAAAAAAAAAAAAAAAAAAAAAAAAAAAAAAAAAAAAAAAAAAAAAAAAAAAAAAAAAAAAAAAAAAEJhbGEAAAAFkAMAAgAAABQAABCekAQAAgAAABQAABCykpEAAgAAAAM4NgAAkpIAAgAAAAM4NgAA6hwABwAACAwAAAiSAAAAABzqAAAACAAAAAAAAAAAAAAAAAAAAAAAAAAAAAAAAAAAAAAAAAAAAAAAAAAAAAAAAAAAAAAAAAAAAAAAAAAAAAAAAAAAAAAAAAAAAAAAAAAAAAAAAAAAAAAAAAAAAAAAAAAAAAAAAAAAAAAAAAAAAAAAAAAAAAAAAAAAAAAAAAAAAAAAAAAAAAAAAAAAAAAAAAAAAAAAAAAAAAAAAAAAAAAAAAAAAAAAAAAAAAAAAAAAAAAAAAAAAAAAAAAAAAAAAAAAAAAAAAAAAAAAAAAAAAAAAAAAAAAAAAAAAAAAAAAAAAAAAAAAAAAAAAAAAAAAAAAAAAAAAAAAAAAAAAAAAAAAAAAAAAAAAAAAAAAAAAAAAAAAAAAAAAAAAAAAAAAAAAAAAAAAAAAAAAAAAAAAAAAAAAAAAAAAAAAAAAAAAAAAAAAAAAAAAAAAAAAAAAAAAAAAAAAAAAAAAAAAAAAAAAAAAAAAAAAAAAAAAAAAAAAAAAAAAAAAAAAAAAAAAAAAAAAAAAAAAAAAAAAAAAAAAAAAAAAAAAAAAAAAAAAAAAAAAAAAAAAAAAAAAAAAAAAAAAAAAAAAAAAAAAAAAAAAAAAAAAAAAAAAAAAAAAAAAAAAAAAAAAAAAAAAAAAAAAAAAAAAAAAAAAAAAAAAAAAAAAAAAAAAAAAAAAAAAAAAAAAAAAAAAAAAAAAAAAAAAAAAAAAAAAAAAAAAAAAAAAAAAAAAAAAAAAAAAAAAAAAAAAAAAAAAAAAAAAAAAAAAAAAAAAAAAAAAAAAAAAAAAAAAAAAAAAAAAAAAAAAAAAAAAAAAAAAAAAAAAAAAAAAAAAAAAAAAAAAAAAAAAAAAAAAAAAAAAAAAAAAAAAAAAAAAAAAAAAAAAAAAAAAAAAAAAAAAAAAAAAAAAAAAAAAAAAAAAAAAAAAAAAAAAAAAAAAAAAAAAAAAAAAAAAAAAAAAAAAAAAAAAAAAAAAAAAAAAAAAAAAAAAAAAAAAAAAAAAAAAAAAAAAAAAAAAAAAAAAAAAAAAAAAAAAAAAAAAAAAAAAAAAAAAAAAAAAAAAAAAAAAAAAAAAAAAAAAAAAAAAAAAAAAAAAAAAAAAAAAAAAAAAAAAAAAAAAAAAAAAAAAAAAAAAAAAAAAAAAAAAAAAAAAAAAAAAAAAAAAAAAAAAAAAAAAAAAAAAAAAAAAAAAAAAAAAAAAAAAAAAAAAAAAAAAAAAAAAAAAAAAAAAAAAAAAAAAAAAAAAAAAAAAAAAAAAAAAAAAAAAAAAAAAAAAAAAAAAAAAAAAAAAAAAAAAAAAAAAAAAAAAAAAAAAAAAAAAAAAAAAAAAAAAAAAAAAAAAAAAAAAAAAAAAAAAAAAAAAAAAAAAAAAAAAAAAAAAAAAAAAAAAAAAAAAAAAAAAAAAAAAAAAAAAAAAAAAAAAAAAAAAAAAAAAAAAAAAAAAAAAAAAAAAAAAAAAAAAAAAAAAAAAAAAAAAAAAAAAAAAAAAAAAAAAAAAAAAAAAAAAAAAAAAAAAAAAAAAAAAAAAAAAAAAAAAAAAAAAAAAAAAAAAAAAAAAAAAAAAAAAAAAAAAAAAAAAAAAAAAAAAAAAAAAAAAAAAAAAAAAAAAAAAAAAAAAAAAAAAAAAAAAAAAAAAAAAAAAAAAAAAAAAAAAAAAAAAAAAAAAAAAAAAAAAAAAAAAAAAAAAAAAAAAAAAAAAAAAAAAAAAAAAAAAAAAAAAAAAAAAAAAAAAAAAAAAAAAAAAAAAAAAAAAAAAAAAAAAAAAAAAAAAAAAAAAAAAAAAAAAAAAAAAAAAAAAAAAAAAAAAAAAAAAAAAAAAAAAAAAAAAAAAAAAAAAAAAAAAAAAAAAAAAAAAAAAAAAAAAAAAAAAAAAAAAAAAAAAAAAAAAAAAAAAAAAAAAAAAAAAAAAAAAAAAAAAAAAAAAAAAAAAAAAAAAAAAAAAAAAAAAAAAAAAAAAAAAAAAAAAAAAAAAAAAAAAAAAAAAAAAAAAAAAAAAAAAAAAAAAAAAAAAAAAAAAAAAAAAAAAAAAAAAAAAAAAAAAAAAAAAAAAAAAAAAAAAAAAAAAAAAAAAAAAAAAAAAAAAAAAAAAAAAAAAAAAAAAAAAAAAAAAAAAAAAAAAAAAAAAAAAAAAAAAAAAAAAAAAAAAAAAAAAAAAAAAAAAAAAAAAAAAAAAAAAAAAAAAAAAAAAAAAAAAAAAAAAAAAAAAAAAAAAAAAAAAAAAAAAAAAAAAAAAAAAAAAAAAAAAAAAAAAAAAAAAAAAAAAAAAAAAAAAAAAAAAAAAAAAAAAAAAAAAAAAAAAAAAAAAAAAAAAAAAAAAAAAAAAAAAAAAAAAAAAAAAAAAAAAAAAAAAAAAAAAAAAAAAAAAAAAAAAAAAAAAAAAAAAAAAAAAAAAAAAAAAAAAAAAAAAAAAAAAAAAAAAAAAAAAAAAAAAAAAAAAAAAAAAAAAAAAAAAAAAAAAAAAAAAAAAAAAAAAAAAAAAAAAAAAAAAAAAAAAAAAAAAAAAAAAAAAAAAAAAAAAAAAAAAAAAAAAAAAAAAAAAAAAAAAAAAAAAAAAAAAAAAAAAAAAAAAAAAAAAAAAAAAAAAAAAAAAAAAAAAAAAAAAAAAAAAAAAAAAAAAAAAAAAAAAAAAAAAAAAAAAAAAAAAAAAAAAAAAAAAAAAAAAAAAAAAAAAAAAAAAAAAAAAAAAAAAAAAAAAAAAAAAAAAAAAAAAAAAAAAAAAAAAAAAAAAAAAAAAAAAAAAAAAAAAAAAAAAAMjAyMDowNzowNCAxNzo1ODowOAAyMDIwOjA3OjA0IDE3OjU4OjA4AAAAQgBhAGwAYQAAAP/hCxdodHRwOi8vbnMuYWRvYmUuY29tL3hhcC8xLjAvADw/eHBhY2tldCBiZWdpbj0n77u/JyBpZD0nVzVNME1wQ2VoaUh6cmVTek5UY3prYzlkJz8+DQo8eDp4bXBtZXRhIHhtbG5zOng9ImFkb2JlOm5zOm1ldGEvIj48cmRmOlJERiB4bWxuczpyZGY9Imh0dHA6Ly93d3cudzMub3JnLzE5OTkvMDIvMjItcmRmLXN5bnRheC1ucyMiPjxyZGY6RGVzY3JpcHRpb24gcmRmOmFib3V0PSJ1dWlkOmZhZjViZGQ1LWJhM2QtMTFkYS1hZDMxLWQzM2Q3NTE4MmYxYiIgeG1sbnM6ZGM9Imh0dHA6Ly9wdXJsLm9yZy9kYy9lbGVtZW50cy8xLjEvIi8+PHJkZjpEZXNjcmlwdGlvbiByZGY6YWJvdXQ9InV1aWQ6ZmFmNWJkZDUtYmEzZC0xMWRhLWFkMzEtZDMzZDc1MTgyZjFiIiB4bWxuczp4bXA9Imh0dHA6Ly9ucy5hZG9iZS5jb20veGFwLzEuMC8iPjx4bXA6Q3JlYXRlRGF0ZT4yMDIwLTA3LTA0VDE3OjU4OjA4Ljg1NjwveG1wOkNyZWF0ZURhdGU+PC9yZGY6RGVzY3JpcHRpb24+PHJkZjpEZXNjcmlwdGlvbiByZGY6YWJvdXQ9InV1aWQ6ZmFmNWJkZDUtYmEzZC0xMWRhLWFkMzEtZDMzZDc1MTgyZjFiIiB4bWxuczpkYz0iaHR0cDovL3B1cmwub3JnL2RjL2VsZW1lbnRzLzEuMS8iPjxkYzpjcmVhdG9yPjxyZGY6U2VxIHhtbG5zOnJkZj0iaHR0cDovL3d3dy53My5vcmcvMTk5OS8wMi8yMi1yZGYtc3ludGF4LW5zIyI+PHJkZjpsaT5CYWxhPC9yZGY6bGk+PC9yZGY6U2VxPg0KCQkJPC9kYzpjcmVhdG9yPjwvcmRmOkRlc2NyaXB0aW9uPjwvcmRmOlJERj48L3g6eG1wbWV0YT4NCiAgICAgICAgICAgICAgICAgICAgICAgICAgICAgICAgICAgICAgICAgICAgICAgICAgICAgICAgICAgICAgICAgICAgICAgICAgICAgICAgICAgICAgICAgICAgICAgICAgICAKICAgICAgICAgICAgICAgICAgICAgICAgICAgICAgICAgICAgICAgICAgICAgICAgICAgICAgICAgICAgICAgICAgICAgICAgICAgICAgICAgICAgICAgICAgICAgICAgICAgIAogICAgICAgICAgICAgICAgICAgICAgICAgICAgICAgICAgICAgICAgICAgICAgICAgICAgICAgICAgICAgICAgICAgICAgICAgICAgICAgICAgICAgICAgICAgICAgICAgICAgCiAgICAgICAgICAgICAgICAgICAgICAgICAgICAgICAgICAgICAgICAgICAgICAgICAgICAgICAgICAgICAgICAgICAgICAgICAgICAgICAgICAgICAgICAgICAgICAgICAgICAKICAgICAgICAgICAgICAgICAgICAgICAgICAgICAgICAgICAgICAgICAgICAgICAgICAgICAgICAgICAgICAgICAgICAgICAgICAgICAgICAgICAgICAgICAgICAgICAgICAgIAogICAgICAgICAgICAgICAgICAgICAgICAgICAgICAgICAgICAgICAgICAgICAgICAgICAgICAgICAgICAgICAgICAgICAgICAgICAgICAgICAgICAgICAgICAgICAgICAgICAgCiAgICAgICAgICAgICAgICAgICAgICAgICAgICAgICAgICAgICAgICAgICAgICAgICAgICAgICAgICAgICAgICAgICAgICAgICAgICAgICAgICAgICAgICAgICAgICAgICAgICAKICAgICAgICAgICAgICAgICAgICAgICAgICAgICAgICAgICAgICAgICAgICAgICAgICAgICAgICAgICAgICAgICAgICAgICAgICAgICAgICAgICAgICAgICAgICAgICAgICAgIAogICAgICAgICAgICAgICAgICAgICAgICAgICAgICAgICAgICAgICAgICAgICAgICAgICAgICAgICAgICAgICAgICAgICAgICAgICAgICAgICAgICAgICAgICAgICAgICAgICAgCiAgICAgICAgICAgICAgICAgICAgICAgICAgICAgICAgICAgICAgICAgICAgICAgICAgICAgICAgICAgICAgICAgICAgICAgICAgICAgICAgICAgICAgICAgICAgICAgICAgICAKICAgICAgICAgICAgICAgICAgICAgICAgICAgICAgICAgICAgICAgICAgICAgICAgICAgICAgICAgICAgICAgICAgICAgICAgICAgICAgICAgICAgICAgICAgICAgICAgICAgIAogICAgICAgICAgICAgICAgICAgICAgICAgICAgICAgICAgICAgICAgICAgICAgICAgICAgICAgICAgICAgICAgICAgICAgICAgICAgICAgICAgICAgICAgICAgICAgICAgICAgCiAgICAgICAgICAgICAgICAgICAgICAgICAgICAgICAgICAgICAgICAgICAgICAgICAgICAgICAgICAgICAgICAgICAgICAgICAgICAgICAgICAgICAgICAgICAgICAgICAgICAKICAgICAgICAgICAgICAgICAgICAgICAgICAgICAgICAgICAgICAgICAgICAgICAgICAgICAgICAgICAgICAgICAgICAgICAgICAgICAgICAgICAgICAgICAgICAgICAgICAgIAogICAgICAgICAgICAgICAgICAgICAgICAgICAgICAgICAgICAgICAgICAgICAgICAgICAgICAgICAgICAgICAgICAgICAgICAgICAgICAgICAgICAgICAgICAgICAgICAgICAgCiAgICAgICAgICAgICAgICAgICAgICAgICAgICAgICAgICAgICAgICAgICAgICAgICAgICAgICAgICAgICAgICAgICAgICAgICAgICAgICAgICAgICAgICAgICAgICAgICAgICAKICAgICAgICAgICAgICAgICAgICAgICAgICAgICAgICAgICAgICAgICAgICAgICAgICAgICAgICAgICAgICAgICAgICAgICAgICAgICAgICAgICAgICAgICAgICAgICAgICAgIAogICAgICAgICAgICAgICAgICAgICAgICAgICAgICAgICAgICAgICAgICAgICAgICAgICAgICAgICAgICAgICAgICAgICAgICAgICAgICAgICAgICAgICAgICAgICAgICAgICAgCiAgICAgICAgICAgICAgICAgICAgICAgICAgICAgICAgICAgICAgICAgICAgICAgICAgICAgICAgICAgICAgICAgICAgICAgICAgICAgICAgICAgICAgICAgICAgICAgICAgICAKICAgICAgICAgICAgICAgICAgICAgICAgICAgICAgICAgICAgICAgICAgICAgICAgICAgICAgICAgICAgICAgICAgICAgICAgICAgICAgICAgICAgICAgICAgICAgICAgICAgIAogICAgICAgICAgICAgICAgICAgICAgICAgICAgPD94cGFja2V0IGVuZD0ndyc/Pv/bAEMABwUFBgUEBwYFBggHBwgKEQsKCQkKFQ8QDBEYFRoZGBUYFxseJyEbHSUdFxgiLiIlKCkrLCsaIC8zLyoyJyorKv/bAEMBBwgICgkKFAsLFCocGBwqKioqKioqKioqKioqKioqKioqKioqKioqKioqKioqKioqKioqKioqKioqKioqKioqKv/AABEIAGYAdAMBIgACEQEDEQH/xAAfAAABBQEBAQEBAQAAAAAAAAAAAQIDBAUGBwgJCgv/xAC1EAACAQMDAgQDBQUEBAAAAX0BAgMABBEFEiExQQYTUWEHInEUMoGRoQgjQrHBFVLR8CQzYnKCCQoWFxgZGiUmJygpKjQ1Njc4OTpDREVGR0hJSlNUVVZXWFlaY2RlZmdoaWpzdHV2d3h5eoOEhYaHiImKkpOUlZaXmJmaoqOkpaanqKmqsrO0tba3uLm6wsPExcbHyMnK0tPU1dbX2Nna4eLj5OXm5+jp6vHy8/T19vf4+fr/xAAfAQADAQEBAQEBAQEBAAAAAAAAAQIDBAUGBwgJCgv/xAC1EQACAQIEBAMEBwUEBAABAncAAQIDEQQFITEGEkFRB2FxEyIygQgUQpGhscEJIzNS8BVictEKFiQ04SXxFxgZGiYnKCkqNTY3ODk6Q0RFRkdISUpTVFVWV1hZWmNkZWZnaGlqc3R1dnd4eXqCg4SFhoeIiYqSk5SVlpeYmZqio6Slpqeoqaqys7S1tre4ubrCw8TFxsfIycrS09TV1tfY2dri4+Tl5ufo6ery8/T19vf4+fr/2gAMAwEAAhEDEQA/APomiiigAooooAKKY8qp1PPpUDXLH7vFAFqiqRlc/wARpPMf+8aAL1FVBO475qVLgHhuDQBNRQDnpRQAUUUUAFFFFABRRRQAVBNPj5U69zTp5Ni4HU1UoACc9aKiurmOztnnnJCIMnAya861zxhqt87RabBLbQdN207moA9Fmure3/4+J44v99gKhj1XT5TiO9gY5xgSCvEp5Z3kP2l5C/feTmowSOhI/GgD3wHIyOR6iivGtL1nWtOZXsnmaP8AusCVNekeHfEi6zH5c8D29yo+ZSOD7g0AdDHKUPqPSrasGXIqhUsMmxsHoaALdFFFABRRRQAUUU2Q4jJ9qAKkrb5CaYTgZPAorJ8T3psPDt1MvDbdq/U0AYXjPxZqXhu4ha3tYZ7SZflkPY+lYB+JetxQpcTaQi27EfvChCn6GrujsnizwrcaHeHN1EpaBz19R+tU/CEy6lpl94R1cYlTJhLdQfT+VezhvYSoc0oXcd/TuefW9qqtlKye3r2J/F1pDqul23iLThlJlAmC9jj/ACK5rR9Mk1fVIbSL+NvmPoO5rc8FXZ0/Ub3wnrP+rkLKm7s3/wBfrWullF4D0W/1G4KvcuxSAe3auKvhpQrezjrfb0Z0U6ylT55dNxdT8Vvo+uWvh3QLSKdlARs9j/nNWvE/jGfRtRtNN063jub6UDzF7KT2rn/Btuum6Xe+LdYO6RgfJ3dST3pPBluby/vvF2s8xxlmj3dz/wDW6fhXfKhQp3k1dQVn5y/4ByqrVnZJ6y/BHpltI7wILgr5+0GRVPQ1NXn/AIT8QTX3i6585jtugSq+mOn869ArxD0i5C+6MeoqSq1qfmYVZoAKKKKACmTf6o0+myDMZHtQBRrl/iAGPhg46eauf1rqKzPEVj/aOgXVuOWKbl+o5oA8k0rUZdK1KG8hPMbcj1HcVu+NLU2t5Y+LdG+65Bl29j6n9a5YgqSDwQcGuw8H30N/Y3Ph/UMNFcKTFu7H0rpw1b2NRS6dfQxrU/aQt1IPGEC6tpNl4u0jiZdvnbP4SP8AA8VmzalefELXNPsMMkESjzPr/E1X/Ccx0LXr3wrrPNtcFkTf0z2P4itI6fB8O9Bv7wsr3ly5S3PoOwr2udUv3aV5fYfk/wDI87lc/fei+16r/MzfFs51fXLLwpo4xbW5CuE6Z/8ArDNWvF95Dpun23h7TiBFAo83b3PX/wCvTfB1qND8P3XiXUvmubkYh39Tnv8AjXK3E8l1cyTzEs8jFiTXmY2ok1QhtH8X1Z2YeLd6kt3+Rs+CwT4rtdvvmvXa81+HentNq0t4w+SFNoPuf/1V6VXnnWTW3+sP0q1Ve1HLGrFABRRRQAUUUUAUpU2SH0pnXrVyaPevHUVT6daAPLvGnh19Nv2vbZSbaY5OB9xu9c1b3ElrcRzwna8bbgRXuVxbxXUDQ3EayRuMMrDOa8/1v4fTxu02jsJEPPlMcEfSgCv4utRr/h618SaaMXdtjzgvUY/wNY9rc3vxB8Q2NtcgrbW6DzcdMDqfqa2fCkt1pGoyabqtrKlrdAowdDtBNaj6XD4J0W8awUy3l5IRGUUkgdh+FepQxqp0HFr3l8L9TiqYdyqXWz3MPxrqqXN8mnWeFtbMbQF6E1z1paTX10lvaoXkc4AFa+m+EdX1SQM0DQoxy0kvH6HmvQ9A8M2mgw5jHmXDD5pWHP4eleWdpPoGkR6LpMdsvL9ZG9TWnRU0EW5tx6CgCeFNkY9afRRQAUUUUAFFFFABUMsO/leDU1FAFAgqcHikq8yK/wB4VC1t/dP50AVmRW+8qn6igorEblBx0yOlSmBx2pPJf+7QAyipltmPXAqZIFXryaAIIoS/J4FWgAowOlLRQAUUUUAFFFFABRRRQAUUUUAFFFFABRRRQAUUUUAFFFFABRRRQAUUUUAf/9k=;" parent="1" vertex="1">
          <mxGeometry x="283.01" y="299.25" width="69.09" height="60.75" as="geometry" />
        </mxCell>
        <mxCell id="GfWKtc_v5-ul72PLcQqI-23" value="Machine/Deep Learning AI Business Reference Architecture" style="text;html=1;strokeColor=none;fillColor=none;align=center;verticalAlign=middle;whiteSpace=wrap;rounded=0;fontSize=19;" parent="1" vertex="1">
          <mxGeometry x="171" y="60" width="527.5" height="20" as="geometry" />
        </mxCell>
        <mxCell id="GfWKtc_v5-ul72PLcQqI-25" value="" style="shape=image;verticalLabelPosition=bottom;labelBackgroundColor=#ffffff;verticalAlign=top;aspect=fixed;imageAspect=0;image=data:image/png,iVBORw0KGgoAAAANSUhEUgAAAGQAAABkCAIAAAD/gAIDAAAYQklEQVR42u1c+Xtb5ZXunzHzPP2hNF60Wt61S14DWUhIYgIBUgIk5AmUBCiEMIWWrexQKC0DtNOWpSyh7MvQlAIlAULixLFlyZYsa7Ela9+Xu3/fnPNdh2GZmQ4N1EkjPX6CbcnSve895z3ve865fIc2Hv/vx3caEDTAaoDVAKsBVgOsBlgNCBpgNcBqgNUAqwFWA6wGBA2wGmA1wGqA1QCrAVYDggZY/yRgKYRS+JLhO/UHBX+WiSzJBL9VFEpEeJ1IBHiNLCsSVSTCU1kiEiGnFVjkc18SgwzQAnwUUZZlUqeES4VTjz4xPry6uv99pZgHKImgEJlWqSxSQZH50wsshX0t/oCxJUEgCYpI+XL814/5N5w17zBk+rRxV4f30gtr4x8DpERSINoURZaocBqBJdPFVMJAUmQIKEkWJLFSG/3Ie9G6qFVbtLam7U1Zd+ucuynfZwh2tM7dfLUw51WIQOAvBOV/gP+fFSwMJDW+JFmRCSVywXPId+HGoKtzwaWvuNr9tq7Ub38p+Y8Gf7jDb2rK2zSVXn1s2D55225Sz1Ei/UPh+QeDRQiGEmG8jV8ECJvFgyTxC/HEQ/f7HJ3JAUPZ0rzQ1+vfuVWIzcLTnIhsVjrwn5NbRmYcxoJdk3AaDg5by2+/RiplzGOC7wz/srdlJEjUjzplwYLTqBNFpSaCQAE3SRInU0mZe+hu/9muGau+ZOtI9OhDV27iAoepUPsS1EIhkX/v9fFBc8asKdoMMy7T5PnnpN54CcGGROYAe3xj+EfAy3CKgUW+mCaQanUo+3j1aywQKuX8/n3jZ/XHLe05uybt1EysG4zu/TWgKgKBKeRLXFRRQDyItJIP3XPb7HJH0tyasbdEeltj127jwl4sDKAxqADaAy6FSGTllE5DSZCg9isYZBI3cSC4+ZyIsz1j0UNaHbF1FP74nFJMMSojyN8S9yVKwt9KGJwClfj4bOKWm729xnyfMW9rjS23evf8UKlkqFwj+BkE1BhRTlmwCJIUiCRBiIwHrt/h6WjKu3UpW2tk2BnYvUcu5yAiUGvV8EUc6FLKky+WOEhcAfQogAZUJyJ41dEj4xec5+83xRxazmYat9jTzz0pZcMSEYmo0JMbLPKV8qR84alqJnDL7uiwOe8y5aztU2bD9K5t/PQE1EHIOlEUUaBTCdFC7Um/RNIi1k0KikGUBQFAA3qSJaWern3yJ8+65fNmfdGljTsMgfWr0n98TtW5hB0A+Rb460TBEpBc4QCBMCSU4pAOUhXUowBsVUwlX3nWN2DOWvV1qy7s1Hsu2Vjevx/PREJY5M/BzCob/d/Kmfp7tarCC0HFS0zEBn75QGDtQNqhB3UWsBrGLzqvfmxUEkqiiJkvUsxOtUguXlJlScEiHDANqaKdI+w0IBmwlJfefmViZIXfrc/16WJW/dhyd/Gd1+ViEvMSXsGI/Ljd+ZoFFrOVcvBBCnx2WUwFww/fPd6tz9lac/2aGbcrvO8NWSrCO1fwIxhWwP4y/ALcp3AiAXeiYHFMFEB0wWFx6IIlPuCNbbss3N2cGtKXe7Sh5c7Ze2+lYgXQ5EGJol3GBz1up79mzsPHITFBLgrAX2r+UlFamB3fuSXQbxpdd/a852Oe1KjEqgZFf0QWTRZhzLd0YFUxBeFiQ82uy6lwcOcV8672vHVZ1tnsdXQk77tTmA9TXhAEScBswBr/GcmRry/GFTVyVReOYUMrKODgosF39XJwWk4mgAFFGXWXANHE0JE5HoNZUbEiS0fwinrs8sKzTx9x9mQHOjPAuO726S2b8uOfoKpUUClhKDFsZHaayud6D1+3msiqHwBJQZjQlZH9wWCLPBQL+CSgM6Z/iSjlYrmnfnvokk2FQx8CeKhemfBfMrAYNeDHf6ztrPfqCu4zQl2aypOPUCGL4lpAvoBrDPyCJ4EJ9IWD/fsOnGUVUb/IYphxiA7YTUlNTCX78pOzIyvmbB1pm3F0+yaUxyBc/w6S/GYji2enPHrtNTND1qCrKTdsmurQLtxxOx+fX6xEIIAILRFQ8/I3qBrJopITFFmEYOKYTaBivXpsLLjxwnC3dqGvOe/Slm366cvPw5cyZ7SkYMlImwKRFLla8xydvmL7rEWTHDJG7Xr/muX+B+4BWmfmjUKtZ9ZEpN+ocCTYFGT+EyJ3Nji5c/u821br1mec+lnLGXm3sWzXT11+LgMLa8tSgsWx40TqBpbHwJGirzzjWb8maWkr2nUpq8Y77Cq9+5pcz8KzsiAT5ZvRikhXaHAUhQUUl4glH3/Y06ktW7Rx1/eSTr1/56Xk4zene4xlm/FkAUukrOWC7MFqD1CUIivlYvnlFz+1tcf79Fm7IWNtA0tYPvQexUpPvqmIItgQI1QqRX/x4NyK4WSvvjTYOdvbNnrJyqr3gMTX6FxgqktbsRmmLt/ICENaYrAU5EyFB1KCsJJQZkLB5tQqXcj5brphaqUzOqDPuzWT3a3+3VcLwQCDd1G+H49L8rfYCfNXfRnigxJKJvUKf/CTsZE1gf62vL01ZzH6V5+Ze+oFpAYeZZicnDxsPaNkN0xvu4Cw5vQSg0VZtxMOvaZIHAGnwyvH23IQ9qjwg8dm9lzhb19WsRtjDoNvhXvqpt2Ez3FwQhxoWUX1Mmp24l8cB04VFnVEnX0E9qzwZHkBWU+YOOq9cON0f2fSZqxZ2icd7dmXfy+kY6DSq9ixBwaT6bw30GlIug3TW7egcsUR0ZJKB5DtLLgo5wtUj3wiV9N48hwBWcjDuSs1Uca5Vu3jv45dPBJxG5P21rTV4Ld0ll56npRLKBUX5RdRJfZXq63InoboxbyjkjAfDd9xq7+nLec2VCzN8X6rb9c2ko1KCldW2GCDijKv4KcuBH1dhqxb49/6A5xzgIMgSwoWjlxYdTtmdiRsvcHNI7Xx/YRCGgCdY1NBQZVPQV6QUq787pu+le45uybnbMlaWqc2rFh4Yy94FTAvIk5u0Lx9OXBlgfA43OBRsHPhu2+PrOyL2wwFZ1vQ2h68ehs/OwlAKqzBjPO0GrzVIjckHrsz69AUO5f5L7mYpbxQpydEmSccWWhNEazxtmUpd0vKbRrrbArfcKUYPoY9ZAwVnhk6PEzswUiV6Qd+NrPKOdfXknU1JXr1nm1bucAxSS5LgiDXla+AJXK0LtWSpXdeOzLYFwUL5WiJO02+dWsT77zJOJOgiRdZllIeRKkoliqH/+zdtD5h1lZ7miIDXQd3XUEZftLS6iweKEXEq+UBsFyt1Z6uorOzYNUnhq2hn+6h1cwisWEFgGgT0Y9AtMRD8Yd+5rWCvNDn+zTTLtPUVduVhTnpcxKMHO9JVQ7sD1+wMe7qSNq1CZdhYri78OZeJZ8G5NGSElkkskAllqy0Mj45eclFcbcha9cl3J1ee2fsqfuFdAjiErw1GNQl7pQqjJY9pu9mXIbksC2wcfW8q63q0KXtOs9AZ/L155V8UkS0INOqiiJgvgCbUaHuHfduuWyurydpbcq5NGOurtyTvxNyccpB+iIUtcBY6LorJrpQPaWtrf6zXYFbrqfVHBAXOicCCQrWUxRZERDi0di9d046u9JOY9nSGh7oPnr1drIQZcAri12hpW3+MS6QFsFyop6SF0KlN186NGCPOY15xzJ/f5tvw4rSW6+iqYZD5tWeKJo5BRJPKpYP7x/fuH7O3pZ1atLmZcGRlcGnfkVzUd/1u2LDzoy1OeM2enqMoZturAWnpXoB6EtUlQc2miXGVfzCz++bG3DP25vylqZUj2lmxw/qM0cVqY6dLPLfJvQEVd43B1b7d9OutsDmc2ilxDrrtdk7booOWXMWXcWlD/U0R3Zs5f1AxhKcaplQDkQDgAfFUoJYk7KPPBE9ayg2oCv0aCND2qOWf03YmwuutjmH0X/xuaXDBxY7+qzRggIA2+2CWM+V33/LO9Cft5iS/dqUSx9cP5x89Wns4ELBkCk2IiiVTkKwMk5jYPMaWs3LisRDbnKCFA1Hbv2xz9WZd0AFbJ7r6wju3CEnwoTWKdNPUAKA8uAfDk4pmUz++2MzlvYFl6naa+KsloOD5vJH+5R8lqrTa/wTqIyQw/Dyeu3gn6c3X5DvNeSchrS1bdzck3r5WaGUREx4NhDCpjKnYCtC/qwxvcScxcQnncA0NPk3r6NcBY8OBDYhdWzm0tSHf53cPBIc7Mg6tQWnyWPvyD79hJSZV7C3ShatC+4WCQpwcGxuasf2mXNXTDx0K7aeFaWK7VXsX6EiQ/1L+FlveM8uX2dL3qaJu/Rzyx2B3dfSQkrCJAd2RNNYU5dJZInPlVgvenELZYlbNDI7jmMdZ2QGjf4LN1C5KvOiBLpIAP0jIBrwCqlYOrxvfM3yiENbcGkyFv3MyKr4c08z7pWw0QqlEtJKqWDQKVw9m0Y5D78jmLYcs83ok2ol/w17Zlb0zTu1yT7tTEfT7HXX1/zjEMYKtqsgADn2cUiKEH1zj/7Cc97qxG9+dXwsd0Ij/hM20tjfw3o/1bosa1uWdPQEd11dj85UoaQR1TSCUGID43KVStXgY/d51g6nLLqUSzvpMgY2jVQ/OUg5eE7G+aqsiDj5UZhAg6wDiyejKgDAy8nCyy97LbaE05SztmUtZu/m88qjfwFkCVwUBXsKcCAVDCxZKBcgfydXDEZt7UW79tjFG9QUUAXfEhppTmZVOXzzjyed+iqkWI8ufJY5sOdKkoojRiLKcsQTh6WYlcJ8JHnfPZEuXcbRnHZro4NW77aL5VkfZVkmMjVeJ4KktgmYsM+/+uL0yNqQw5Tu0yYdGu+Aq/L2n6RSmcUeJDz2y4o4W0KJWhsbDV60KWvrTtpbss7WolM7dfkFJwVYcDkh6mtwHLJYGn3/6Jb18279guuMiqXF57RkXnlBTKVlfCCZKxBk6O9QyIpzvslt28J97pxNW7Qbptq1C/ffKcYC7D1RPuGKg1gXAmPT27dErR1Zm3besWz6bHPw3p9Sscy66VjdqjhQAkXCQZHgwpORn+z2d3wv426Ouozpoe45AMuh8W07OcDimJFReIYGWB+hUD747sSqgaS7Pe7SRaw63/nrQ68+w4KGh6xlFpttaUHIcEJt7MjBjasi9rYFpyY0ZIqs6g/edwfl8wpkcWp24ppts33dObux2Nsa6tXP3XeLkAgiNvhx+HZYIIEf5ToRC/7bb5wfdMZtbZlB7bStaerqK8mfX/W4DEXHSRNZaGBlHlRVCs6BokeTRWBkaf7+e6LLnbH+1qK9Jd/ZFtx0XsVzBHKMgKrCOgWJA8EDBbMCkTT/wu+CG1elejRFZ0u03zix7qzcQz8fdZmrjrayvSXo0o/v2Fjx4qxIFlFDcLKsrjDhHmGlUHjrjXGHLdWpLwyawk5zZGRt7b038diifk+njoG16ThYMlla6QDiT6mLFbroaGSqLKqveX/yoVuPdmmyfe05izawwvbpVVuVhRDQvszx7A+xZuIgHpgtm0g///ghtyFv6yhYDGlzc9qmi9lMnvXD9dH3FRDu7HRZ1SSSBF4JiqZS3LcvsG6Np0+f7tfl3J0HB6yld15XSkkcvYkKSU5N9uiLDsPU4sBCZqZnCQme9TrBzuM4gjEYahyKIot5RlKLjnu2XpTu682atXl727Fu0/xjD3KZoGqTmVoUeQp5BbiJSjYd3HNNqM9S6G0PrF3u//UDisQpIs/LUh03BECSE3xrItSjk5BogS5T0bmsYNVEBvt9d9xGJbAGaBEATcQl6Zns1TKwNqrTHbq0YOHAnoktMRlJfbQPfwVVT5AgyAS2ww45Q+V61XMAu1e29oxdB4ETXT0YfuJBgFQRBBEVOdtIwy1uyLE6Fxjzv/C4lAhTZv7UxXmZhxBkPYniwtS1OyODtiRItmHDMYtu4We3SaEoK80K9p4FdfdIFiOTXlt3wfHZwGKpwcK2JJN5+/Q6b5tu7rKtFd9RypckImC6KNgDJmqyUj70+8fDa1eE7YaCw5DsNR4eOat89H0qlKEy1AlaGFxnw/Y9ZDbKK8IWcxjTwDWpiZlo5rmnRq2dWWdn0aqJ2k2B89fxo6OAUo1187FTgQ1ojqMVpZIuvfq0z2woQak9ScACdlc18Xuaf0n3NS+4NLEz24/tvFxJJNizcO51BgLIASB/Ts7Op/7wm0k4W4uhYjeF3R0Tl43whw6qO1XMJGMHHcU4GhscoKomZW7vU7MbBoHLyg7jnEXjGRmqfvoBqRUlCp6KY52qRecESVj84O2ZkZG4Q5d3N6cdxo/BsbLwX2LOYrePYHNKDB4b3X5+aKg749KDbjxs16V+90sxDqnESVAEVX5W0KxhzzI5H911VdzVlbXpSo5Or0Ufvusmfm5W3bGpgXqS1fQGqLnKxNihTasjDkPJZUrbtaE1rsgj97PhG+6HQ3GRIBRxiKsoAi8Epqevu2bG1la2aRccGv9Km/e2m2kxJxGWoSekHE6cs9hdAMjtgkArhcrB9w6dOzRj1RdchrBT7183NP/rp0ArVMWqwoaMuO0GgYDToGrVP+7btWPK1lRy6jJm3eTKgdn776T1EthpXIAB4EIB/1VbQ+7uslUP9eFwjzbzi3v4eAjeCVAX2OYVG48A90u0kp667kfhIXO6T5eztEbN7TM/2SPMByhfADctqjjJ0pKCxRam0MeBhUV1DiEkJH/zaHjVUKpXB7I7aO/wjpwtHD0gClV1FIsGiI30cW4j1RNvPTd97tqMxVC2tKYtzYeW24vvvyZGvfFHHzzSZUg4WlNuTWigI/jDrXLEh/UTpBYvq/HMlutlOZ8o7X1mwtxZGOhK9huiVt3cRSPF/e+ynUqCLmvRQZMl1lk4e8FOi8SuMSIH2gGOD8g4/eTj47aegkubdbXGLIbADzZXJsdFPFtJqWGSYaGTcB1bKhULb+8dG+pKMEqK9HdEVjqT9vaK0xTuNXk2baiMHaBSBU8auxg4xBVY1sEBZF592n/u6pRZn3XqwpaWYytXlz/4UKxksfmgzjNkdhOMvLgDuKQT6cVbKBZXN9XtOqD0GhYxXp4NTl29wzfQm3Xo031tYy5j4pG7hWiQ1Ms47ICgYDKzCsxPeFIrhG7+aXTYOWdtybkN4IGOjazIPPsH3E2TWf8YffPizT+Q2dWJD6cuXRfu1iQGjVGXZmbNwPSDt1OphtVUXlxugr9kcx11iexEm6Xfxk0DzICxEoZzYLHCeSZmt24J24w55/fnLC2BtcPBR+6iuIiKE1S42nUcQBBsxRDKB32BPTf81e4oPvuMkI2R4yNvEOR1QZLVW1DiEc/OS6PDPXFbU9VuHO3WhB++S0zO4sgXZetnw1pZPRaJhdfx60pPHrC+0ruVWP+AirG9z/hHVqX7OlL21jmb9uhZruKHfxGqeRzUyGyrhAEtihzOZBVQajUWriJbJ0HjDSEjLITjjz3s6TEUrfqcRZd0W8a2Xyz5xilIYHXQ/20+vvU7LHCOT3AijYik04UXn56ydBR7m1LuFn+fKbFpU/WTj7CXStVprZBjDR2FhyiSsBWG9Uud8PPhJx6aXOuOuZsy9pZYt867cW39yAeyUBVAOSgYl+L/wd/kVABLUNj4k0nLCuv1klIxesOPIsO9BWtz3qH1dbeGbrymHp6CwoU3BECB4FEUsY0cCfumPFf/9NDU+vUxc2ve3ZQ0a6Y3nBl7/gl4XpLExfVUWWVygVmFzzHqKRRZqldmA3YES13kx31+SaiHJnzXbp026wrutqhNGznTNftv1ytCWmR7EThlxrvo6iX/0fFtW/IWc86mjw+1e+ydmf94QgCppaBolwW2WKKQ4zdbS/TbvB/l2785Uzm+lUyYwODLABfb8MZzK3z4J9+mc3JWY9naGuo3TvRb86/sVUoZkYp8PBK7+95Irylpb553fT+8vNsHLgrvRhQom2TIx+/JkDHNWaeenOKc9bftUjlbev+lieW9GbM+Y29PuLomLzg7/eProiuGMt36ilkbdZo8V27hfKOUr8rf6o1MJztYwMoS+z8RiBnvPTdOr7SnzNqcU5uzNWUt2ojdNDlybuzFl6hYEulnveTTESxF7aFjl0EmbH9GFJLh0J27p1wdOXu7x92bfvkZqZLHvgtBx8zup6Knb2QRXIjhBdaPIDyjIblSPHRg9K5baCnNVm7wPh1Ua/gflBKnM1hEXrxDDMy1CIWwBPZHkCA54YE9fXUywbZJFZnS0zmyVLy+6kLIV3Tk4v2IlJzWYJ1CjwZYDbAaYDXAaoDVAKvxaIDVAKsBVgOsBlgNsBqPBlgNsBpgNcBqgNUAq/H4L6EG9rk1+eM/AAAAAElFTkSuQmCC;" parent="1" vertex="1">
          <mxGeometry x="530" y="260" width="70" height="70" as="geometry" />
        </mxCell>
        <mxCell id="GfWKtc_v5-ul72PLcQqI-46" value="Logic Apps" style="text;html=1;strokeColor=none;fillColor=none;align=center;verticalAlign=middle;whiteSpace=wrap;rounded=0;fontSize=14;" parent="1" vertex="1">
          <mxGeometry x="273.5" y="240" width="81" height="20" as="geometry" />
        </mxCell>
        <mxCell id="GfWKtc_v5-ul72PLcQqI-47" value="Velocity" style="text;html=1;strokeColor=none;fillColor=none;align=center;verticalAlign=middle;whiteSpace=wrap;rounded=0;fontSize=14;" parent="1" vertex="1">
          <mxGeometry x="273.5" y="350" width="81" height="20" as="geometry" />
        </mxCell>
        <mxCell id="GfWKtc_v5-ul72PLcQqI-48" value="Data Factory" style="text;html=1;strokeColor=none;fillColor=none;align=center;verticalAlign=middle;whiteSpace=wrap;rounded=0;fontSize=14;" parent="1" vertex="1">
          <mxGeometry x="277.06" y="480" width="82.94" height="20" as="geometry" />
        </mxCell>
        <mxCell id="GfWKtc_v5-ul72PLcQqI-49" value="Data Factory" style="text;html=1;strokeColor=none;fillColor=none;align=center;verticalAlign=middle;whiteSpace=wrap;rounded=0;fontSize=14;" parent="1" vertex="1">
          <mxGeometry x="277.06" y="600" width="82.94" height="20" as="geometry" />
        </mxCell>
        <mxCell id="GfWKtc_v5-ul72PLcQqI-50" value="Reviews" style="text;html=1;strokeColor=none;fillColor=none;align=center;verticalAlign=middle;whiteSpace=wrap;rounded=0;fontSize=14;" parent="1" vertex="1">
          <mxGeometry x="48" y="613" width="81" height="20" as="geometry" />
        </mxCell>
        <mxCell id="GfWKtc_v5-ul72PLcQqI-51" value="Warranty/&lt;br&gt;Customer Service" style="text;html=1;strokeColor=none;fillColor=none;align=center;verticalAlign=middle;whiteSpace=wrap;rounded=0;fontSize=14;" parent="1" vertex="1">
          <mxGeometry x="48" y="538" width="81" height="50" as="geometry" />
        </mxCell>
        <mxCell id="GfWKtc_v5-ul72PLcQqI-52" value="Feedbacks" style="text;html=1;strokeColor=none;fillColor=none;align=center;verticalAlign=middle;whiteSpace=wrap;rounded=0;fontSize=14;" parent="1" vertex="1">
          <mxGeometry x="51" y="490" width="81" height="20" as="geometry" />
        </mxCell>
        <mxCell id="GfWKtc_v5-ul72PLcQqI-53" value="Oracle Business Systems" style="text;html=1;strokeColor=none;fillColor=none;align=center;verticalAlign=middle;whiteSpace=wrap;rounded=0;fontSize=14;" parent="1" vertex="1">
          <mxGeometry x="39" y="430" width="81" height="20" as="geometry" />
        </mxCell>
        <mxCell id="GfWKtc_v5-ul72PLcQqI-56" value="CRM" style="text;html=1;strokeColor=none;fillColor=none;align=center;verticalAlign=middle;whiteSpace=wrap;rounded=0;fontSize=14;" parent="1" vertex="1">
          <mxGeometry x="48" y="380" width="81" height="20" as="geometry" />
        </mxCell>
        <mxCell id="GfWKtc_v5-ul72PLcQqI-57" value="ECC/BW&lt;br&gt;/HANA" style="text;html=1;strokeColor=none;fillColor=none;align=center;verticalAlign=middle;whiteSpace=wrap;rounded=0;fontSize=14;" parent="1" vertex="1">
          <mxGeometry x="39" y="314" width="81" height="36" as="geometry" />
        </mxCell>
        <mxCell id="GfWKtc_v5-ul72PLcQqI-58" value="Face Book" style="text;html=1;strokeColor=none;fillColor=none;align=center;verticalAlign=middle;whiteSpace=wrap;rounded=0;fontSize=14;" parent="1" vertex="1">
          <mxGeometry x="32.5" y="181" width="81" height="20" as="geometry" />
        </mxCell>
        <mxCell id="GfWKtc_v5-ul72PLcQqI-59" value="Twitter" style="text;html=1;strokeColor=none;fillColor=none;align=center;verticalAlign=middle;whiteSpace=wrap;rounded=0;fontSize=14;" parent="1" vertex="1">
          <mxGeometry x="39" y="250" width="81" height="20" as="geometry" />
        </mxCell>
        <mxCell id="n4oyMPaBW0hCQtKeoCHl-3" style="edgeStyle=orthogonalEdgeStyle;rounded=0;orthogonalLoop=1;jettySize=auto;html=1;exitX=0.5;exitY=1;exitDx=0;exitDy=0;" parent="1" source="GfWKtc_v5-ul72PLcQqI-60" target="n4oyMPaBW0hCQtKeoCHl-1" edge="1">
          <mxGeometry relative="1" as="geometry" />
        </mxCell>
        <mxCell id="GfWKtc_v5-ul72PLcQqI-60" value="Data Lake" style="text;html=1;strokeColor=none;fillColor=none;align=center;verticalAlign=middle;whiteSpace=wrap;rounded=0;fontSize=14;" parent="1" vertex="1">
          <mxGeometry x="417.5" y="415" width="81" height="20" as="geometry" />
        </mxCell>
        <mxCell id="GfWKtc_v5-ul72PLcQqI-61" value="Synapse" style="text;html=1;strokeColor=none;fillColor=none;align=center;verticalAlign=middle;whiteSpace=wrap;rounded=0;fontSize=14;" parent="1" vertex="1">
          <mxGeometry x="525.05" y="420" width="81" height="20" as="geometry" />
        </mxCell>
        <mxCell id="GfWKtc_v5-ul72PLcQqI-68" value="" style="edgeStyle=orthogonalEdgeStyle;rounded=0;orthogonalLoop=1;jettySize=auto;html=1;startArrow=none;startFill=0;endArrow=classic;endFill=1;fontSize=14;" parent="1" source="GfWKtc_v5-ul72PLcQqI-62" target="GfWKtc_v5-ul72PLcQqI-66" edge="1">
          <mxGeometry relative="1" as="geometry" />
        </mxCell>
        <mxCell id="GfWKtc_v5-ul72PLcQqI-62" value="Azure ML" style="text;html=1;strokeColor=none;fillColor=none;align=center;verticalAlign=middle;whiteSpace=wrap;rounded=0;fontSize=14;" parent="1" vertex="1">
          <mxGeometry x="524.5" y="510" width="81" height="20" as="geometry" />
        </mxCell>
        <mxCell id="GfWKtc_v5-ul72PLcQqI-63" value="Azure Data Bricks" style="text;html=1;strokeColor=none;fillColor=none;align=center;verticalAlign=middle;whiteSpace=wrap;rounded=0;fontSize=14;" parent="1" vertex="1">
          <mxGeometry x="524.5" y="319" width="81" height="20" as="geometry" />
        </mxCell>
        <mxCell id="GfWKtc_v5-ul72PLcQqI-64" value="Serverless SQL" style="text;html=1;strokeColor=none;fillColor=none;align=center;verticalAlign=middle;whiteSpace=wrap;rounded=0;fontSize=14;" parent="1" vertex="1">
          <mxGeometry x="617.5" y="420" width="81" height="20" as="geometry" />
        </mxCell>
        <mxCell id="GfWKtc_v5-ul72PLcQqI-65" value="Power BI" style="text;html=1;strokeColor=none;fillColor=none;align=center;verticalAlign=middle;whiteSpace=wrap;rounded=0;fontSize=14;" parent="1" vertex="1">
          <mxGeometry x="719.5" y="420" width="81" height="20" as="geometry" />
        </mxCell>
        <mxCell id="GfWKtc_v5-ul72PLcQqI-66" value="" style="aspect=fixed;html=1;points=[];align=center;image;fontSize=12;image=img/lib/mscae/Batch_AI.svg;" parent="1" vertex="1">
          <mxGeometry x="547" y="566" width="36" height="50" as="geometry" />
        </mxCell>
        <mxCell id="GfWKtc_v5-ul72PLcQqI-73" value="" style="edgeStyle=orthogonalEdgeStyle;rounded=0;orthogonalLoop=1;jettySize=auto;html=1;startArrow=none;startFill=0;endArrow=classic;endFill=1;fontSize=14;" parent="1" source="GfWKtc_v5-ul72PLcQqI-67" target="GfWKtc_v5-ul72PLcQqI-72" edge="1">
          <mxGeometry relative="1" as="geometry" />
        </mxCell>
        <mxCell id="GfWKtc_v5-ul72PLcQqI-67" value="" style="aspect=fixed;html=1;points=[];align=center;image;fontSize=12;image=img/lib/mscae/Kubernetes_Services.svg;" parent="1" vertex="1">
          <mxGeometry x="639" y="467" width="50" height="37" as="geometry" />
        </mxCell>
        <mxCell id="GfWKtc_v5-ul72PLcQqI-70" value="Batch AI" style="text;html=1;strokeColor=none;fillColor=none;align=center;verticalAlign=middle;whiteSpace=wrap;rounded=0;fontSize=14;" parent="1" vertex="1">
          <mxGeometry x="524.5" y="615" width="81" height="20" as="geometry" />
        </mxCell>
        <mxCell id="GfWKtc_v5-ul72PLcQqI-71" value="Azure Kubernetes" style="text;html=1;strokeColor=none;fillColor=none;align=center;verticalAlign=middle;whiteSpace=wrap;rounded=0;fontSize=14;" parent="1" vertex="1">
          <mxGeometry x="622" y="510" width="81" height="20" as="geometry" />
        </mxCell>
        <mxCell id="GfWKtc_v5-ul72PLcQqI-72" value="" style="pointerEvents=1;shadow=0;dashed=0;html=1;strokeColor=none;fillColor=#DF8C42;labelPosition=center;verticalLabelPosition=bottom;verticalAlign=top;align=center;outlineConnect=0;shape=mxgraph.veeam2.restful_api;fontSize=14;" parent="1" vertex="1">
          <mxGeometry x="739" y="465" width="40" height="41" as="geometry" />
        </mxCell>
        <mxCell id="GfWKtc_v5-ul72PLcQqI-74" value="REST Api" style="text;html=1;strokeColor=none;fillColor=none;align=center;verticalAlign=middle;whiteSpace=wrap;rounded=0;fontSize=14;" parent="1" vertex="1">
          <mxGeometry x="719.5" y="510" width="81" height="20" as="geometry" />
        </mxCell>
        <mxCell id="n4oyMPaBW0hCQtKeoCHl-1" value="" style="shape=image;html=1;verticalAlign=top;verticalLabelPosition=bottom;labelBackgroundColor=#ffffff;imageAspect=0;aspect=fixed;image=https://cdn4.iconfinder.com/data/icons/technology-83/1000/business_data-driven_model_data_biographical_data_data_modelling_database-128.png" parent="1" vertex="1">
          <mxGeometry x="424" y="462" width="68" height="68" as="geometry" />
        </mxCell>
        <mxCell id="n4oyMPaBW0hCQtKeoCHl-2" value="Common Data Model" style="text;html=1;strokeColor=none;fillColor=none;align=center;verticalAlign=middle;whiteSpace=wrap;rounded=0;fontSize=14;" parent="1" vertex="1">
          <mxGeometry x="417.5" y="520" width="81" height="40" as="geometry" />
        </mxCell>
        <mxCell id="Wt8TvYqCvoo39W7ugdJr-4" style="edgeStyle=none;rounded=0;orthogonalLoop=1;jettySize=auto;html=1;" edge="1" parent="1" source="Wt8TvYqCvoo39W7ugdJr-1">
          <mxGeometry relative="1" as="geometry">
            <mxPoint x="410" y="130" as="targetPoint" />
          </mxGeometry>
        </mxCell>
        <mxCell id="Wt8TvYqCvoo39W7ugdJr-1" value="" style="aspect=fixed;html=1;points=[];align=center;image;fontSize=12;image=img/lib/azure2/iot/Event_Hubs.svg;" vertex="1" parent="1">
          <mxGeometry x="289" y="110" width="44.67" height="40" as="geometry" />
        </mxCell>
        <mxCell id="Wt8TvYqCvoo39W7ugdJr-5" style="edgeStyle=none;rounded=0;orthogonalLoop=1;jettySize=auto;html=1;" edge="1" parent="1" source="Wt8TvYqCvoo39W7ugdJr-2">
          <mxGeometry relative="1" as="geometry">
            <mxPoint x="460" y="360" as="targetPoint" />
            <Array as="points">
              <mxPoint x="460" y="250" />
            </Array>
          </mxGeometry>
        </mxCell>
        <mxCell id="Wt8TvYqCvoo39W7ugdJr-2" value="" style="aspect=fixed;html=1;points=[];align=center;image;fontSize=12;image=img/lib/azure2/iot/Stream_Analytics_Jobs.svg;" vertex="1" parent="1">
          <mxGeometry x="411.89" y="111" width="45.72" height="39" as="geometry" />
        </mxCell>
        <mxCell id="Wt8TvYqCvoo39W7ugdJr-6" value="Event Hub" style="text;html=1;strokeColor=none;fillColor=none;align=center;verticalAlign=middle;whiteSpace=wrap;rounded=0;fontSize=14;" vertex="1" parent="1">
          <mxGeometry x="271.1" y="150" width="81" height="20" as="geometry" />
        </mxCell>
        <mxCell id="Wt8TvYqCvoo39W7ugdJr-7" value="Stream Analytics" style="text;html=1;strokeColor=none;fillColor=none;align=center;verticalAlign=middle;whiteSpace=wrap;rounded=0;fontSize=14;" vertex="1" parent="1">
          <mxGeometry x="371.87" y="91" width="125.75" height="20" as="geometry" />
        </mxCell>
        <mxCell id="Wt8TvYqCvoo39W7ugdJr-8" value="Streaming" style="text;html=1;strokeColor=none;fillColor=none;align=center;verticalAlign=middle;whiteSpace=wrap;rounded=0;fontSize=14;rotation=90;" vertex="1" parent="1">
          <mxGeometry x="430" y="299.25" width="85.75" height="20" as="geometry" />
        </mxCell>
        <mxCell id="Wt8TvYqCvoo39W7ugdJr-9" value="Streaming" style="text;html=1;strokeColor=none;fillColor=none;align=center;verticalAlign=middle;whiteSpace=wrap;rounded=0;fontSize=14;rotation=0;" vertex="1" parent="1">
          <mxGeometry x="203.25" y="110" width="85.75" height="20" as="geometry" />
        </mxCell>
      </root>
    </mxGraphModel>
  </diagram>
</mxfile>
